<?xml version="1.0" encoding="UTF-8"?>
<svg version="1.1" xmlns="http://www.w3.org/2000/svg" width="953" height="276">
<path d="M0 0 C13.53 0 27.06 0 41 0 C41.59598453 6.55582981 42.1481835 12.80945333 42.12698364 19.33938599 C42.12854363 20.10353628 42.13010362 20.86768657 42.13171089 21.65499294 C42.13564932 24.17512652 42.13255956 26.69519817 42.12939453 29.21533203 C42.13075164 31.03796931 42.13253331 32.86060631 42.13470459 34.6832428 C42.13923881 39.60193007 42.13750681 44.52059623 42.1343255 49.43928385 C42.13178497 54.59175579 42.1341438 59.74422598 42.13571167 64.896698 C42.13752679 73.53627852 42.13514261 82.17585047 42.13037109 90.81542969 C42.1249125 100.81480565 42.12670532 110.81416128 42.1321975 120.81353676 C42.13672686 129.40308911 42.13738057 137.99263533 42.13475883 146.58218849 C42.13319729 151.71120976 42.13299929 156.84022144 42.13629532 161.9692421 C42.13917204 166.78078866 42.13720208 171.59230877 42.13140106 176.40385246 C42.13007312 178.17402922 42.13046814 179.94420819 42.13266373 181.71438408 C42.13537348 184.11977013 42.13199649 186.52506997 42.12698364 188.93045044 C42.12921436 189.63985972 42.13144509 190.34926899 42.13374341 191.08017552 C42.11415103 195.88584897 42.11415103 195.88584897 41 197 C37.97022196 197.08871273 34.96332978 197.1151935 31.93359375 197.09765625 C31.02497086 197.0962413 30.11634796 197.09482635 29.18019104 197.09336853 C26.26592779 197.08775193 23.35174019 197.07519665 20.4375 197.0625 C18.46679798 197.05748714 16.49609476 197.05292386 14.52539062 197.04882812 C9.68356441 197.03777711 4.84179505 197.02050138 0 197 C-0.66 192.05 -1.32 187.1 -2 182 C-3.4025 183.36125 -4.805 184.7225 -6.25 186.125 C-19.88018307 198.33457244 -35.84842729 201.1552281 -53.58154297 200.20263672 C-70.20071472 198.81015615 -85.22174812 190.09518091 -95.9375 177.5625 C-109.93843797 159.32050121 -115.32743094 136.43364887 -112.50390625 113.6171875 C-109.53623697 92.62897226 -101.20521907 74.71333124 -83.96484375 61.7109375 C-68.30208326 51.34673167 -49.47162736 47.67187471 -31 51.0625 C-21.62419117 53.30637335 -13.03676164 57.19302051 -5.79052734 63.63183594 C-5.07826996 64.26248962 -4.36601257 64.89314331 -3.63217163 65.54290771 C-3.09355499 66.02374817 -2.55493835 66.50458862 -2 67 C-1.98969254 66.19011627 -1.97938507 65.38023254 -1.96876526 64.54580688 C-1.87089635 56.92339284 -1.76839719 49.30106196 -1.66066074 41.67878151 C-1.60543316 37.75984151 -1.55201343 33.84089405 -1.50268555 29.921875 C-1.45503954 26.1417112 -1.40269667 22.36163926 -1.34705925 18.58158493 C-1.32663676 17.13747817 -1.30792349 15.69334623 -1.29092598 14.2491951 C-1.26687994 12.23068749 -1.23626123 10.21226138 -1.20532227 8.19384766 C-1.18977798 7.04357086 -1.1742337 5.89329407 -1.15821838 4.7081604 C-1 2 -1 2 0 0 Z M-59 94 C-67.88840879 104.1247664 -70.76487503 115.74216619 -70 129 C-68.59949755 140.41675414 -64.85571094 150.35321013 -56 158 C-47.06556197 164.44821793 -38.5845441 165.11416254 -28 164 C-19.23039265 162.36959413 -12.51181837 157.68709752 -7.41796875 150.421875 C-0.73146365 139.00139797 1.40869149 126.97344567 -1.15234375 114.015625 C-4.32531151 102.72746319 -10.46147354 93.89647295 -20.6875 88.0625 C-33.92508937 82.04356536 -48.39358504 84.35456895 -59 94 Z " fill="#31353A" transform="translate(527,61)"/>
<path d="M0 0 C13.44063304 13.75848585 17.50828215 30.81872189 17.42602539 49.62890625 C17.42617142 50.51764938 17.42631744 51.40639252 17.4264679 52.32206726 C17.42577631 55.2329663 17.41801951 58.14379977 17.41015625 61.0546875 C17.40828939 63.08349574 17.40686675 65.11230443 17.40586853 67.14111328 C17.40206447 72.46097068 17.39225235 77.78080044 17.38116455 83.10064697 C17.36909861 89.49428232 17.36453813 95.88792694 17.35871124 102.28157043 C17.34903936 111.9767953 17.32986804 121.67195962 17.3125 131.3671875 C3.4525 131.3671875 -10.4075 131.3671875 -24.6875 131.3671875 C-25.0175 127.0771875 -25.3475 122.7871875 -25.6875 118.3671875 C-26.76 119.3984375 -27.8325 120.4296875 -28.9375 121.4921875 C-42.21029074 133.03577663 -58.27172066 135.48385127 -75.25585938 134.57421875 C-85.99840952 133.65959199 -95.18032736 129.95883782 -103.6875 123.3671875 C-104.34234375 122.86703125 -104.9971875 122.366875 -105.671875 121.8515625 C-112.34093484 116.00875786 -118.01773558 105.28441267 -118.88037109 96.37524414 C-119.41899589 82.34978088 -118.16487449 70.51163032 -108.6875 59.359375 C-94.91871181 45.64437114 -76.23715617 42.16406889 -57.5625 42.1796875 C-56.19532837 42.17980835 -56.19532837 42.17980835 -54.80053711 42.17993164 C-46.96129186 42.2453103 -39.42070256 43.04452988 -31.6875 44.3671875 C-29.99947266 44.64755859 -29.99947266 44.64755859 -28.27734375 44.93359375 C-27.42269531 45.07667969 -26.56804687 45.21976563 -25.6875 45.3671875 C-26.8715074 36.13474968 -26.8715074 36.13474968 -31.6875 28.3671875 C-42.74818445 20.01477764 -56.39721762 21.41663708 -69.6875 22.3671875 C-79.05666421 23.78628786 -87.87547289 26.99089397 -96.6875 30.3671875 C-99.91061652 24.43437124 -102.59085202 18.35398157 -105 12.0546875 C-105.26635254 11.37341797 -105.53270508 10.69214844 -105.80712891 9.99023438 C-107.17727551 6.33051252 -108.01317302 3.28283748 -107.6875 -0.6328125 C-77.25740186 -17.36695522 -28.36604808 -24.72698271 0 0 Z M-75.6875 78.3671875 C-77.57799005 84.03865764 -77.44474357 90.17516664 -75.5 95.8046875 C-72.4111713 100.17165222 -69.09907237 102.78069719 -63.82421875 104.05078125 C-53.56262594 105.57032242 -42.85117108 104.66086472 -34.25 98.4921875 C-30.37338117 95.29079941 -27.30134336 92.20871757 -25.6875 87.3671875 C-25.46031504 84.80083889 -25.27141816 82.25040643 -25.125 79.6796875 C-25.06022461 78.6268457 -25.06022461 78.6268457 -24.99414062 77.55273438 C-24.8883264 75.82443544 -24.78743419 74.0958364 -24.6875 72.3671875 C-28.84661505 70.44883599 -32.92727495 69.75638599 -37.4375 69.2421875 C-38.15268799 69.1594458 -38.86787598 69.0767041 -39.60473633 68.99145508 C-52.57071387 67.55831909 -66.73137535 67.29781995 -75.6875 78.3671875 Z " fill="#303439" transform="translate(377.6875,126.6328125)"/>
<path d="M0 0 C14.19960717 13.13323351 21.95497062 32.69956356 22.98779297 51.78271484 C23.43032874 66.52932627 23.43032874 66.52932627 21.8515625 71.265625 C16.33170128 72.20026637 11.02006021 72.40269808 5.42797852 72.37915039 C4.05119179 72.37936943 4.05119179 72.37936943 2.64659119 72.3795929 C-0.36714089 72.37889993 -3.38081006 72.37113651 -6.39453125 72.36328125 C-8.49202948 72.36141488 -10.58952815 72.35999201 -12.68702698 72.35899353 C-18.19266983 72.3551856 -23.69828608 72.34537009 -29.20391846 72.33428955 C-34.82799927 72.3240383 -40.4520844 72.31948796 -46.07617188 72.31445312 C-57.10027207 72.30374623 -68.12435257 72.28669059 -79.1484375 72.265625 C-78.67894264 73.7161981 -78.20583865 75.16560341 -77.73120117 76.61450195 C-77.46812668 77.42176224 -77.20505219 78.22902252 -76.93400574 79.06074524 C-74.13420213 86.91904452 -67.3525924 92.78522743 -59.9765625 96.30078125 C-49.72265976 99.99975623 -36.05927192 99.91997417 -26.1484375 95.265625 C-21.40584472 92.63014391 -16.74395131 90.026711 -13.078125 85.98046875 C-11.1484375 84.265625 -11.1484375 84.265625 -9.21484375 84.265625 C-6.4772402 85.59043882 -4.40635197 87.29720271 -2.0859375 89.265625 C-1.12945313 90.06871094 -0.17296875 90.87179688 0.8125 91.69921875 C2.31683594 92.96958984 2.31683594 92.96958984 3.8515625 94.265625 C5.90777461 95.96095349 7.97348456 97.64417192 10.0390625 99.328125 C11.64322917 100.640625 13.24739583 101.953125 14.8515625 103.265625 C13.94781005 110.16268317 6.42549274 115.17430668 1.3515625 119.296875 C-17.51322109 133.0826784 -40.20481716 135.91717873 -62.93359375 132.67578125 C-77.93036316 129.95388119 -91.65841782 122.22145373 -102.1484375 111.265625 C-103.31439453 110.12867188 -103.31439453 110.12867188 -104.50390625 108.96875 C-118.18368439 94.94525884 -123.30711176 75.46521049 -123.1484375 56.265625 C-121.89519126 33.52815754 -113.04956441 15.03024697 -96.2109375 -0.484375 C-68.95285528 -23.25289074 -27.22334285 -21.97666223 0 0 Z M-71.1484375 25.265625 C-75.76602012 30.61919787 -80.1484375 37.97589791 -80.1484375 45.265625 C-60.0184375 45.265625 -39.8884375 45.265625 -19.1484375 45.265625 C-20.41657591 35.12051774 -22.92045885 28.11768363 -31.0546875 21.66796875 C-43.84826477 13.09913622 -59.83543391 15.31798391 -71.1484375 25.265625 Z " fill="#303438" transform="translate(711.1484375,127.734375)"/>
<path d="M0 0 C20.19221999 -0.02254564 40.38442984 -0.04097836 60.5766592 -0.05181217 C69.95158271 -0.05697548 79.32649787 -0.06401884 88.70141602 -0.07543945 C96.86954522 -0.08538523 105.03766837 -0.09185317 113.20580345 -0.09408849 C117.53351055 -0.09539578 121.86120034 -0.09848277 126.1889019 -0.10573006 C130.25749728 -0.1124886 134.32606812 -0.1146173 138.39466858 -0.11310768 C139.89231563 -0.11338408 141.38996345 -0.11539019 142.88760567 -0.11920547 C144.92351318 -0.12414006 146.9594337 -0.12239818 148.99534607 -0.12025452 C150.13744758 -0.12117631 151.27954908 -0.1220981 152.45625973 -0.12304783 C155 0 155 0 156 1 C156.08854347 3.6660154 156.115319 6.30669399 156.09765625 8.97265625 C156.09664917 9.67934448 156.09564209 10.38603271 156.09460449 11.11413574 C156.08935745 13.76360691 156.07539629 16.41305502 156.0625 19.0625 C156.041875 24.981875 156.02125 30.90125 156 37 C137.52 37 119.04 37 100 37 C100 88.48 100 139.96 100 193 C85.48 193 70.96 193 56 193 C56 141.52 56 90.04 56 37 C37.52 37 19.04 37 0 37 C0 24.79 0 12.58 0 0 Z " fill="#2F3438" transform="translate(8,65)"/>
<path d="M0 0 C1.50726654 -0.01925285 1.50726654 -0.01925285 3.04498291 -0.03889465 C4.1396991 -0.04628159 5.23441528 -0.05366852 6.36230469 -0.0612793 C7.48102966 -0.06935104 8.59975464 -0.07742279 9.75238037 -0.08573914 C12.12640829 -0.09960076 14.50045631 -0.11031356 16.87451172 -0.11816406 C20.50494276 -0.13535957 24.13445947 -0.17922639 27.76464844 -0.22338867 C30.06802714 -0.23351652 32.3714136 -0.24203233 34.67480469 -0.2487793 C36.30473358 -0.27504143 36.30473358 -0.27504143 37.96759033 -0.30183411 C45.49958949 -0.28017672 45.49958949 -0.28017672 49.32348633 1.94799805 C51.12860175 4.000134 52.7645921 5.98341186 54.26464844 8.2668457 C54.78389893 9.04471436 55.30314941 9.82258301 55.83813477 10.62402344 C56.6467395 11.8568103 56.6467395 11.8568103 57.47167969 13.11450195 C61.35326035 18.91953218 65.27019112 24.63138513 69.59667969 30.11450195 C73.38436523 34.94349655 76.81551706 39.90338545 80.17480469 45.03637695 C83.85802025 50.52027567 87.83213331 55.79092632 91.75732422 61.1027832 C98.45207524 70.19753931 105.06239329 79.3596084 111.53417969 88.61450195 C112.24058594 89.62383789 112.94699219 90.63317383 113.67480469 91.6730957 C115.28417969 94.17700195 115.28417969 94.17700195 116.28417969 97.17700195 C114.99750262 99.49486759 113.67483459 101.57724617 112.15917969 103.73950195 C111.70905518 104.39789063 111.25893066 105.0562793 110.79516602 105.73461914 C106.74159927 111.62245067 102.53959314 117.40546646 98.328125 123.1809082 C93.70039982 129.54301249 89.24639612 136.0138795 84.86108398 142.54516602 C81.72603277 147.18449314 78.41361934 151.61995367 74.94921875 156.01806641 C72.52207074 159.16517342 70.30913292 162.43975924 68.09667969 165.73950195 C64.10749411 171.61570281 59.98572526 177.37199584 55.72167969 183.05200195 C55.20903564 183.73593018 54.6963916 184.4198584 54.16821289 185.12451172 C52.30030639 187.59671317 50.47802275 189.98315889 48.28417969 192.17700195 C45.99362183 192.41751099 45.99362183 192.41751099 43.10009766 192.40405273 C42.01912811 192.40390167 40.93815857 192.40375061 39.82443237 192.40359497 C38.65357086 192.3932724 37.48270935 192.38294983 36.27636719 192.37231445 C35.08061066 192.36948456 33.88485413 192.36665466 32.65286255 192.36373901 C28.8215345 192.352515 24.99043747 192.32740626 21.15917969 192.30200195 C18.56673514 192.29197503 15.97428694 192.28284868 13.38183594 192.2746582 C7.01587127 192.25256842 0.65004198 192.21906901 -5.71582031 192.17700195 C-4.12383253 187.98251402 -2.05346124 184.58548969 0.59667969 180.98950195 C1.03326904 180.38783203 1.4698584 179.78616211 1.91967773 179.16625977 C2.86982615 177.85729197 3.82214257 176.54989575 4.77636719 175.24389648 C6.85299802 172.39727139 8.91209785 169.538133 10.97241211 166.6796875 C12.62265035 164.39098341 14.27530668 162.10404471 15.92871094 159.81762695 C18.67569346 156.01889699 21.42110219 152.21903494 24.16552734 148.41845703 C25.24706651 146.92077814 26.328773 145.42322007 27.41064453 143.92578125 C30.10959142 140.18993023 32.80645511 136.45260962 35.49902344 132.7121582 C36.03108398 131.97376709 36.56314453 131.23537598 37.11132812 130.47460938 C38.17927477 128.99233958 39.24634187 127.50943566 40.3125 126.02587891 C43.22586586 121.98351745 46.17785194 117.975249 49.17871094 113.99731445 C49.82203369 113.14000732 50.46535645 112.2827002 51.12817383 111.39941406 C52.37124092 109.74618419 53.62141932 108.09827037 54.87963867 106.45654297 C55.44110596 105.70816162 56.00257324 104.95978027 56.58105469 104.1887207 C57.32887207 103.20585083 57.32887207 103.20585083 58.09179688 102.203125 C59.51916224 99.77771444 60.08814869 97.98842685 60.28417969 95.17700195 C59.36807881 93.06796507 59.36807881 93.06796507 57.77636719 91.1652832 C57.20845459 90.41690186 56.64054199 89.66852051 56.05541992 88.89746094 C55.42966064 88.10283447 54.80390137 87.30820801 54.15917969 86.48950195 C52.85482813 84.77930089 51.55146493 83.06834562 50.24902344 81.35668945 C49.58370605 80.49140625 48.91838867 79.62612305 48.23291016 78.73461914 C45.32181932 74.91394918 42.51951047 71.0184619 39.72167969 67.11450195 C38.64771798 65.62343137 37.57349885 64.13254615 36.49902344 62.6418457 C35.96905762 61.90562988 35.4390918 61.16941406 34.89306641 60.41088867 C32.73526651 57.41485391 30.57335327 54.42180045 28.41113281 51.42895508 C26.78630873 49.17994887 25.16219714 46.93042925 23.53808594 44.6809082 C21.36088946 41.66607677 19.18095052 38.65325501 16.99902344 35.6418457 C14.29792262 31.91278584 11.60360254 28.17891944 8.91455078 24.44116211 C7.79950395 22.89265293 6.6825512 21.34551484 5.56396484 19.79956055 C3.88118289 17.47141911 2.20676481 15.13747581 0.53417969 12.80200195 C0.02040771 12.09422607 -0.49336426 11.3864502 -1.02270508 10.65722656 C-1.49377686 9.99601807 -1.96484863 9.33480957 -2.45019531 8.65356445 C-2.86495117 8.07687012 -3.27970703 7.50017578 -3.70703125 6.90600586 C-4.82132052 4.99618093 -5.3662182 3.35711149 -5.71582031 1.17700195 C-4.08618838 -0.45262998 -2.24994983 0.02492267 0 0 Z " fill="#31AEA0" transform="translate(742.7158203125,65.822998046875)"/>
<path d="M0 0 C1 1 1 1 1.11352539 4.78540039 C1.11336622 6.47282729 1.10766917 8.16025905 1.09765625 9.84765625 C1.0962413 10.7340831 1.09482635 11.62050995 1.09336853 12.53379822 C1.08775215 15.37673254 1.07519691 18.21958931 1.0625 21.0625 C1.05748711 22.98502491 1.05292384 24.90755104 1.04882812 26.83007812 C1.03777741 31.55341549 1.02050183 36.27669458 1 41 C0.06913574 41.05260986 -0.86172852 41.10521973 -1.82080078 41.15942383 C-14.93256034 41.98157674 -26.37594677 43.75393777 -35.67578125 53.8125 C-42.42641298 62.12096982 -45.08335295 71.50691007 -45.18945312 82.06933594 C-45.19774643 82.76096329 -45.20603973 83.45259064 -45.21458435 84.16517639 C-45.23191345 85.65909353 -45.24709938 87.15303676 -45.26036072 88.64699554 C-45.2814655 91.00848829 -45.30847724 93.36984859 -45.33703613 95.73126221 C-45.40670538 101.59073248 -45.46640582 107.45029614 -45.52606201 113.30987549 C-45.57691328 118.27160762 -45.6316825 123.23326504 -45.69187927 128.19489288 C-45.7185176 130.52653309 -45.73928581 132.85818013 -45.7598877 135.18988037 C-45.77648101 136.60933777 -45.79335198 138.02879195 -45.81054688 139.44824219 C-45.82933899 141.31425079 -45.82933899 141.31425079 -45.84851074 143.21795654 C-46 146 -46 146 -47 147 C-60.86 147 -74.72 147 -89 147 C-89 99.48 -89 51.96 -89 3 C-75.14 3 -61.28 3 -47 3 C-46.505 13.395 -46.505 13.395 -46 24 C-44.989375 22.659375 -43.97875 21.31875 -42.9375 19.9375 C-32.05866847 6.05009382 -18.3718551 -2.04131723 0 0 Z " fill="#31353A" transform="translate(250,111)"/>
<path d="M0 0 C1.19568002 2.39136005 1.06769058 3.69255519 0.96166992 6.35327148 C0.92793777 7.26236267 0.89420563 8.17145386 0.85945129 9.10809326 C0.79560493 10.5995285 0.79560493 10.5995285 0.73046875 12.12109375 C0.69003952 13.15687561 0.64961029 14.19265747 0.60795593 15.25982666 C0.47355709 18.65264371 0.33084756 22.04505014 0.1875 25.4375 C0.0931379 27.75691228 -0.00109995 30.07632963 -0.09521484 32.39575195 C-0.86065122 50.94277076 -1.82956052 69.47431398 -3 88 C-6.86139269 87.45427223 -9.15057802 86.46175927 -12.20703125 84.05859375 C-12.95791016 83.47529297 -13.70878906 82.89199219 -14.48242188 82.29101562 C-15.25134766 81.67935547 -16.02027344 81.06769531 -16.8125 80.4375 C-17.60076172 79.82197266 -18.38902344 79.20644531 -19.20117188 78.57226562 C-21.14052159 77.05604676 -23.07300896 75.53187371 -25 74 C-29.42279212 75.93213531 -31.31378672 78.99419448 -33.875 82.9375 C-38.05911442 89.20152928 -42.38202355 95.3285578 -46.875 101.375 C-51.52040456 107.63774536 -56.13183129 113.92162339 -60.6875 120.25 C-64.81082442 125.97502917 -68.95123001 131.68661759 -73.125 137.375 C-73.57447998 137.98762695 -74.02395996 138.60025391 -74.48706055 139.23144531 C-76.64302602 142.16571225 -78.80842269 145.09222096 -81 148 C-84.23670488 146.62611561 -85.86875381 145.22491139 -87.8828125 142.359375 C-88.40584961 141.62477051 -88.92888672 140.89016602 -89.46777344 140.13330078 C-90.0146582 139.34681152 -90.56154297 138.56032227 -91.125 137.75 C-92.27862458 136.11717248 -93.43227067 134.48436017 -94.5859375 132.8515625 C-95.15795898 132.0359082 -95.72998047 131.22025391 -96.31933594 130.37988281 C-97.87140007 128.18210228 -99.44726421 126.0050392 -101.0390625 123.8359375 C-101.49909668 123.2059082 -101.95913086 122.57587891 -102.43310547 121.92675781 C-103.29025836 120.75401248 -104.15107975 119.58393677 -105.01611328 118.41699219 C-107.013794 115.65720513 -108.61741506 113.41538864 -109 110 C-108.05053711 108.11914063 -108.05053711 108.11914063 -106.52734375 106.15625 C-105.96466797 105.41503906 -105.40199219 104.67382812 -104.82226562 103.91015625 C-104.20029297 103.11480469 -103.57832031 102.31945312 -102.9375 101.5 C-101.63186208 99.78296047 -100.32854411 98.06415481 -99.02734375 96.34375 C-98.35558105 95.45945312 -97.68381836 94.57515625 -96.99169922 93.6640625 C-93.88973433 89.5149278 -90.94490207 85.26134291 -88 81 C-82.64918154 73.28629531 -77.15120409 65.6961886 -71.52929688 58.17773438 C-66.36285464 52.13499449 -66.36285464 52.13499449 -64 45 C-65.35083258 43.73130143 -65.35083258 43.73130143 -67.140625 42.50390625 C-68.12869141 41.78944336 -68.12869141 41.78944336 -69.13671875 41.06054688 C-69.83410156 40.56619141 -70.53148437 40.07183594 -71.25 39.5625 C-72.60941817 38.58469544 -73.96879435 37.60683248 -75.328125 36.62890625 C-75.96685547 36.17273926 -76.60558594 35.71657227 -77.26367188 35.24658203 C-79.1969711 33.85858627 -81.1054654 32.44043224 -83 31 C-82.67 30.01 -82.34 29.02 -82 28 C-79.49006041 26.79972833 -77.07059004 25.80405252 -74.46484375 24.85546875 C-73.66980942 24.55658249 -72.87477509 24.25769623 -72.0556488 23.94975281 C-69.37616515 22.95008272 -66.68959616 21.97212274 -64 21 C-63.05392883 20.65777405 -62.10785767 20.3155481 -61.13311768 19.96295166 C-53.9554051 17.37718536 -46.76032724 14.84161587 -39.5625 12.3125 C-36.37255837 11.1887623 -33.18290777 10.06420324 -29.99339294 8.93925476 C-28.03021318 8.24713856 -26.06674543 7.55583837 -24.10292053 6.86555481 C-23.20085373 6.54809799 -22.29878693 6.23064117 -21.36938477 5.90356445 C-20.48960968 5.59528717 -19.60983459 5.28700989 -18.70339966 4.96939087 C-16.81098092 4.29080328 -14.92677379 3.5890752 -13.04928589 2.87020874 C-12.08548004 2.50335968 -11.12167419 2.13651062 -10.12866211 1.75854492 C-9.26446152 1.422155 -8.40026093 1.08576508 -7.50987244 0.73918152 C-4.87966048 -0.03544114 -2.72621479 -0.13748171 0 0 Z " fill="#31AEA0" transform="translate(948,5)"/>
<path d="M0 0 C2.5565156 0.3749418 3.76055106 0.75222915 5.58056641 2.63549805 C6.08249512 3.33715088 6.58442383 4.03880371 7.1015625 4.76171875 C7.66883057 5.54361572 8.23609863 6.3255127 8.82055664 7.13110352 C9.7137561 8.39651978 9.7137561 8.39651978 10.625 9.6875 C11.24818115 10.55238037 11.8713623 11.41726074 12.51342773 12.30834961 C14.3524778 14.86512394 16.17746555 17.43143801 18 20 C18.8936771 21.24800792 19.7881048 22.49547901 20.68359375 23.7421875 C22.27884436 25.96625126 23.86809848 28.19442077 25.453125 30.42578125 C28.38542754 34.54889603 31.34851388 38.64962915 34.3125 42.75 C34.85825684 43.50514893 35.40401367 44.26029785 35.96630859 45.03833008 C37.64390932 47.3591012 39.32188749 49.67959892 41 52 C44.8236265 57.28709906 48.64426076 62.57631823 52.45996094 67.86914062 C53.98112508 69.97388392 55.50944993 72.07326648 57.0390625 74.171875 C57.96366691 75.44782592 58.8881528 76.72386273 59.8125 78 C60.45288208 78.87253418 60.45288208 78.87253418 61.10620117 79.76269531 C64 83.77332437 64 83.77332437 64 86 C56.38876495 86.40825307 48.78037524 86.68685255 41.16064453 86.87890625 C38.57396004 86.95900336 35.98799188 87.06793087 33.40380859 87.20703125 C12.59136509 88.29862104 12.59136509 88.29862104 6.70956421 84.5340271 C2.89041855 80.89719987 0.3654604 76.6560245 -1.98846436 71.97210693 C-3.31989925 69.37631904 -4.97314336 67.08526096 -6.69921875 64.73828125 C-7.69945532 63.26582655 -8.69568396 61.79063971 -9.6875 60.3125 C-10.76620131 58.71305195 -11.84563245 57.11409588 -12.92578125 55.515625 C-13.69849365 54.3719043 -13.69849365 54.3719043 -14.48681641 53.20507812 C-15.91220435 51.12793971 -17.3721282 49.08289379 -18.85546875 47.046875 C-19.28448486 46.45221436 -19.71350098 45.85755371 -20.15551758 45.24487305 C-21.29044335 43.67915263 -22.43770926 42.12239752 -23.5859375 40.56640625 C-25 38 -25 38 -24.93359375 35.9453125 C-23.75715524 33.49398874 -22.33239182 31.48185008 -20.6875 29.3125 C-19.97464844 28.35601562 -19.26179687 27.39953125 -18.52734375 26.4140625 C-18.1288623 25.87942383 -17.73038086 25.34478516 -17.31982422 24.79394531 C-14.74555673 21.29492247 -12.25224208 17.7381911 -9.75 14.1875 C-8.98949341 13.11205933 -8.98949341 13.11205933 -8.21362305 12.01489258 C-5.41514284 8.04787714 -2.67236166 4.05308185 0 0 Z " fill="#279C92" transform="translate(864,172)"/>
<path d="M0 0 C17.49 0 34.98 0 53 0 C52.67 0.66 52.34 1.32 52 2 C35.17 2 18.34 2 1 2 C1 53.15 1 104.3 1 157 C0.01 157 -0.98 157 -2 157 C-2 105.85 -2 54.7 -2 2 C-1.34 2 -0.68 2 0 2 C0 1.34 0 0.68 0 0 Z " fill="#282B2E" transform="translate(107,100)"/>
<path d="M0 0 C0.66 0 1.32 0 2 0 C2 46.53 2 93.06 2 141 C14.54 141 27.08 141 40 141 C39.98839844 136.87113281 39.97679687 132.74226562 39.96484375 128.48828125 C39.9584098 125.18977641 39.95298804 121.89127335 39.94824982 118.59276581 C39.94297598 115.11432123 39.93593165 111.63590115 39.92456055 108.1574707 C39.91158652 104.16357185 39.90675772 100.16969881 39.90234375 96.17578125 C39.89718246 94.93290848 39.89202118 93.69003571 39.88670349 92.40950012 C39.88662796 91.24867416 39.88655243 90.08784821 39.88647461 88.8918457 C39.884254 87.87258499 39.88203339 86.85332428 39.87974548 85.80317688 C39.99582006 83.09743585 40.39084966 80.63450968 41 78 C41.33 78 41.66 78 42 78 C42 99.45 42 120.9 42 143 C28.14 143 14.28 143 0 143 C0 95.81 0 48.62 0 0 Z " fill="#25292D" transform="translate(161,115)"/>
<path d="M0 0 C0.33 0 0.66 0 1 0 C-0.05367796 28.68479968 -1.19002839 57.35181594 -3 86 C-6.86139269 85.45427223 -9.15057802 84.46175927 -12.20703125 82.05859375 C-13.33334961 81.18364258 -13.33334961 81.18364258 -14.48242188 80.29101562 C-15.25134766 79.67935547 -16.02027344 79.06769531 -16.8125 78.4375 C-17.99489258 77.51420898 -17.99489258 77.51420898 -19.20117188 76.57226562 C-21.14052159 75.05604676 -23.07300896 73.53187371 -25 72 C-28.16115776 73.36983503 -28.9927092 73.9890638 -31 77 C-31.99 77 -32.98 77 -34 77 C-33.125 72.25 -33.125 72.25 -32 70 C-31.34 70 -30.68 70 -30 70 C-30 69.34 -30 68.68 -30 68 C-27.36 68 -24.72 68 -22 68 C-22 68.66 -22 69.32 -22 70 C-21.34 70 -20.68 70 -20 70 C-20 70.66 -20 71.32 -20 72 C-18.68 72 -17.36 72 -16 72 C-16 72.66 -16 73.32 -16 74 C-15.34 74 -14.68 74 -14 74 C-14 74.66 -14 75.32 -14 76 C-12.7934375 76.37125 -12.7934375 76.37125 -11.5625 76.75 C-9 78 -9 78 -8.1875 80.125 C-8.0946875 81.053125 -8.0946875 81.053125 -8 82 C-7.34 82 -6.68 82 -6 82 C-6.00523682 80.82381104 -6.01047363 79.64762207 -6.01586914 78.43579102 C-6.03391663 74.08797969 -6.04543108 69.7401717 -6.05493164 65.39233398 C-6.05997244 63.5075627 -6.06680498 61.62279535 -6.07543945 59.73803711 C-6.08751617 57.03498364 -6.09323068 54.33198169 -6.09765625 51.62890625 C-6.10281754 50.78099014 -6.10797882 49.93307404 -6.11329651 49.0594635 C-6.11349195 47.03928932 -6.06206211 45.01922066 -6 43 C-5.67 42.67 -5.34 42.34 -5 42 C-4.78452016 40.30758539 -4.62900042 38.60744302 -4.5 36.90625 C-4.4175 35.87628906 -4.335 34.84632812 -4.25 33.78515625 C-4.1675 32.70105469 -4.085 31.61695312 -4 30.5 C-3.83747078 28.36426444 -3.67101957 26.22882246 -3.5 24.09375 C-3.4278125 23.14177734 -3.355625 22.18980469 -3.28125 21.20898438 C-3 19 -3 19 -2 18 C-1.78871644 15.35015201 -1.62387334 12.71660103 -1.5 10.0625 C-1.13434803 2.26869607 -1.13434803 2.26869607 0 0 Z " fill="#40A59A" transform="translate(948,7)"/>
<path d="M0 0 C13.53 0 27.06 0 41 0 C40.67 46.2 40.34 92.4 40 140 C39.67 140 39.34 140 39 140 C39 94.46 39 48.92 39 2 C26.46 2 13.92 2 1 2 C1 24.11 1 46.22 1 69 C0.67 69 0.34 69 0 69 C0 46.23 0 23.46 0 0 Z " fill="#202427" transform="translate(527,61)"/>
<path d="M0 0 C0.42388381 3.41600481 0.13020332 4.79835768 -1.765625 7.734375 C-2.58546875 8.72953125 -3.4053125 9.7246875 -4.25 10.75 C-5.16738932 11.887951 -6.08128153 13.02872761 -6.9921875 14.171875 C-7.47913086 14.78224609 -7.96607422 15.39261719 -8.46777344 16.02148438 C-11.7708998 20.28670682 -14.80804894 24.74719172 -17.88769531 29.17480469 C-20.47874119 32.88753058 -23.11779789 36.50311024 -26 40 C-29.96996957 38.67667681 -31.76036395 35.9910601 -34.14453125 32.75390625 C-35 31 -35 31 -34 28 C-32.35 28 -30.7 28 -29 28 C-28.34 29.32 -27.68 30.64 -27 32 C-25.68 32 -24.36 32 -23 32 C-23 30.68 -23 29.36 -23 28 C-22.34 28 -21.68 28 -21 28 C-21 27.34 -21 26.68 -21 26 C-20.34 26 -19.68 26 -19 26 C-19 24.02 -19 22.04 -19 20 C-18.34 20 -17.68 20 -17 20 C-17 19.34 -17 18.68 -17 18 C-16.34 18 -15.68 18 -15 18 C-15 17.34 -15 16.68 -15 16 C-14.34 15.67 -13.68 15.34 -13 15 C-12.67 14.01 -12.34 13.02 -12 12 C-11.01 12 -10.02 12 -9 12 C-9 10.68 -9 9.36 -9 8 C-8.34 8 -7.68 8 -7 8 C-7 6.68 -7 5.36 -7 4 C-2.77777778 0 -2.77777778 0 0 0 Z " fill="#35A296" transform="translate(893,113)"/>
<path d="M0 0 C1.5 1.3125 1.5 1.3125 3 3 C3 3.99 3 4.98 3 6 C3.99 6.33 4.98 6.66 6 7 C6 7.66 6 8.32 6 9 C6.66 9 7.32 9 8 9 C8.33 8.34 8.66 7.68 9 7 C15.0513926 15.17786327 21.04190053 23.38017324 26.78125 31.78125 C28.36170333 34.07402032 29.96018221 36.33971729 31.59375 38.59375 C32.0170459 39.18462402 32.4403418 39.77549805 32.87646484 40.38427734 C34.05982269 42.03412901 35.25230896 43.6774221 36.4453125 45.3203125 C36.95835937 46.20460937 37.47140625 47.08890625 38 48 C37.67 48.99 37.34 49.98 37 51 C35.68 50.67 34.36 50.34 33 50 C33 48.68 33 47.36 33 46 C32.34 46 31.68 46 31 46 C31 45.34 31 44.68 31 44 C30.34 44 29.68 44 29 44 C29 43.34 29 42.68 29 42 C28.34 42 27.68 42 27 42 C25.74335022 39.09399739 25 37.20395416 25 34 C23.68 34 22.36 34 21 34 C21 32.68 21 31.36 21 30 C20.34 30 19.68 30 19 30 C19 28.68 19 27.36 19 26 C17.68 25.34 16.36 24.68 15 24 C15 22.68 15 21.36 15 20 C14.34 20 13.68 20 13 20 C13 19.34 13 18.68 13 18 C11.68 18 10.36 18 9 18 C8.67 17.01 8.34 16.02 8 15 C7.34 14.34 6.68 13.68 6 13 C6.33 12.01 6.66 11.02 7 10 C5.68 10 4.36 10 3 10 C2.49596232 8.70990357 1.99690074 7.41786211 1.5 6.125 C1.2215625 5.40570313 0.943125 4.68640625 0.65625 3.9453125 C0 2 0 2 0 0 Z " fill="#39A699" transform="translate(799,83)"/>
<path d="M0 0 C0.33 0 0.66 0 1 0 C1 25.74 1 51.48 1 78 C0.67 78 0.34 78 0 78 C-0.495 75.03 -0.495 75.03 -1 72 C-1.33 72 -1.66 72 -2 72 C-2.04634424 63.20300166 -2.08187981 54.40604536 -2.10362434 45.60895157 C-2.11406072 41.5240879 -2.12821724 37.43930778 -2.15087891 33.35449219 C-2.17261251 29.41228158 -2.18456973 25.47015133 -2.18975449 21.52788544 C-2.19344931 20.02399175 -2.20066437 18.52010245 -2.21146011 17.01624298 C-2.22598206 14.90949507 -2.22797767 12.80307899 -2.22705078 10.69628906 C-2.231492 9.49715881 -2.23593323 8.29802856 -2.24050903 7.06256104 C-2.00997957 4.12707652 -1.53985196 2.47030333 0 0 Z " fill="#27292F" transform="translate(394,173)"/>
<path d="M0 0 C1.52179115 -0.00472824 1.52179115 -0.00472824 3.07432556 -0.009552 C4.73051659 -0.00651566 4.73051659 -0.00651566 6.42016602 -0.00341797 C8.10892601 -0.00485306 8.10892601 -0.00485306 9.83180237 -0.00631714 C12.21843522 -0.0069992 14.60506991 -0.00514311 16.99169922 -0.00097656 C20.65474603 0.00436634 24.31766995 -0.00091814 27.98071289 -0.00732422 C30.2938642 -0.00666334 32.60701544 -0.00538199 34.92016602 -0.00341797 C36.02226913 -0.0054422 37.12437225 -0.00746643 38.25987244 -0.009552 C39.78639183 -0.00482376 39.78639183 -0.00482376 41.34375 0 C42.24230209 0.00079559 43.14085419 0.00159119 44.06663513 0.00241089 C46.23657227 0.12939453 46.23657227 0.12939453 48.23657227 1.12939453 C48.86157227 3.69189453 48.86157227 3.69189453 49.23657227 6.12939453 C46.76157227 5.63439453 46.76157227 5.63439453 44.23657227 5.12939453 C44.23657227 4.79939453 44.23657227 4.46939453 44.23657227 4.12939453 C30.04657227 3.79939453 15.85657227 3.46939453 1.23657227 3.12939453 C1.23657227 5.10939453 1.23657227 7.08939453 1.23657227 9.12939453 C0.57657227 8.79939453 -0.08342773 8.46939453 -0.76342773 8.12939453 C-0.76342773 7.46939453 -0.76342773 6.80939453 -0.76342773 6.12939453 C-2.08342773 5.79939453 -3.40342773 5.46939453 -4.76342773 5.12939453 C-5.32592773 3.19189453 -5.32592773 3.19189453 -5.76342773 1.12939453 C-4.12483871 -0.50919449 -2.25846931 0.00200146 0 0 Z " fill="#379A8F" transform="translate(742.763427734375,65.87060546875)"/>
<path d="M0 0 C2.60847723 0.37092539 3.76975577 0.75499878 5.59985352 2.70239258 C6.10444092 3.42579834 6.60902832 4.1492041 7.12890625 4.89453125 C7.68900391 5.68537109 8.24910156 6.47621094 8.82617188 7.29101562 C9.39916016 8.12310547 9.97214844 8.95519531 10.5625 9.8125 C11.70958203 11.44404795 12.85671571 13.07555959 14.00390625 14.70703125 C14.50736572 15.4338208 15.0108252 16.16061035 15.52954102 16.90942383 C16.54242989 18.34946491 17.59824105 19.75994185 18.68725586 21.14331055 C20 23 20 23 20 25 C18.68 25 17.36 25 16 25 C16 24.34 16 23.68 16 23 C-0.5 23 -17 23 -34 23 C-34 22.67 -34 22.34 -34 22 C-18.16 22 -2.32 22 14 22 C14 21.34 14 20.68 14 20 C13.34 20 12.68 20 12 20 C12 18.68 12 17.36 12 16 C11.34 16 10.68 16 10 16 C10 15.01 10 14.02 10 13 C8.68 12.67 7.36 12.34 6 12 C6 10.68 6 9.36 6 8 C5.34 8 4.68 8 4 8 C4 7.34 4 6.68 4 6 C2.68 5.67 1.36 5.34 0 5 C0 3.35 0 1.7 0 0 Z " fill="#41988E" transform="translate(908,233)"/>
<path d="M0 0 C30.69 0.33 61.38 0.66 93 1 C93 1.33 93 1.66 93 2 C92.34489441 2.01030746 91.68978882 2.02061493 91.01483154 2.03123474 C84.20168161 2.13934424 77.38866273 2.25393883 70.57568359 2.37231445 C68.03241719 2.41564899 65.48912198 2.45732513 62.94580078 2.49731445 C59.29190381 2.55505258 55.63815169 2.61873725 51.984375 2.68359375 C50.84570984 2.70030624 49.70704468 2.71701874 48.53387451 2.73423767 C46.94267792 2.7641555 46.94267792 2.7641555 45.31933594 2.79467773 C44.38667908 2.81022202 43.45402222 2.8257663 42.49310303 2.84178162 C40.18581257 2.98820788 38.22808748 3.4261291 36 4 C33.30456564 4.01597162 30.64431822 3.97657433 27.953125 3.87890625 C26.79632233 3.84348976 26.79632233 3.84348976 25.6161499 3.80735779 C23.16056736 3.73097661 20.7053207 3.64684308 18.25 3.5625 C16.58204751 3.5092537 14.91407879 3.45651348 13.24609375 3.40429688 C9.16385106 3.27539622 5.08189217 3.13954376 1 3 C0.67 4.32 0.34 5.64 0 7 C-0.93423645 3.98968256 -1.04449911 3.13349732 0 0 Z " fill="#23272B" transform="translate(630,196)"/>
<path d="M0 0 C3.30840645 0.2374088 4.14536727 1.15864601 6.4375 3.66015625 C7.30568684 4.78357433 8.15929103 5.91837369 9 7.0625 C9.43626709 7.65595215 9.87253418 8.2494043 10.32202148 8.86083984 C11.17608026 10.03864162 12.02323926 11.22148322 12.86279297 12.40966797 C13.79905971 13.71899419 14.78576992 14.992099 15.78515625 16.25390625 C17.0625 18.125 17.0625 18.125 18 22 C16.15397425 26.06017393 13.75131937 29.50299594 11 33 C10.02408417 29.61682513 10.14143345 27.4342662 11 24 C11.66 24 12.32 24 13 24 C13 22.02 13 20.04 13 18 C11.68 17.67 10.36 17.34 9 17 C9 15.35 9 13.7 9 12 C7.68 12 6.36 12 5 12 C5 10.68 5 9.36 5 8 C4.34 8 3.68 8 3 8 C3 7.34 3 6.68 3 6 C2.34 6 1.68 6 1 6 C0.67 4.02 0.34 2.04 0 0 Z " fill="#40A498" transform="translate(841,141)"/>
<path d="M0 0 C0.33 0 0.66 0 1 0 C1.125 5.75 1.125 5.75 0 8 C19.14 8 38.28 8 58 8 C58 8.66 58 9.32 58 10 C38.53 10 19.06 10 -1 10 C-2.10191901 5.59232396 -1.58706842 4.1077065 0 0 Z " fill="#262A2E" transform="translate(631,165)"/>
<path d="M0 0 C0.33 0 0.66 0 1 0 C1 3.3 1 6.6 1 10 C18.82 10 36.64 10 55 10 C54.67 10.66 54.34 11.32 54 12 C35.85 12 17.7 12 -1 12 C-1 2 -1 2 0 0 Z " fill="#23272B" transform="translate(9,90)"/>
<path d="M0 0 C0.99 0.33 1.98 0.66 3 1 C3 5.29 3 9.58 3 14 C15.54 14 28.08 14 41 14 C41.33 13.34 41.66 12.68 42 12 C42 13.32 42 14.64 42 16 C28.47 16 14.94 16 1 16 C0.67 11.71 0.34 7.42 0 3 C-1.32 3.99 -2.64 4.98 -4 6 C-2.84826645 3.53199953 -1.95216435 1.95216435 0 0 Z " fill="#23272B" transform="translate(352,242)"/>
<path d="M0 0 C4.64314602 0.97520434 6.0899225 3.06980399 8.8046875 6.85546875 C10.37677572 9.67597996 10.47477678 11.8348215 10 15 C8.68 14.34 7.36 13.68 6 13 C6 11.68 6 10.36 6 9 C5.34 9 4.68 9 4 9 C4 7.68 4 6.36 4 5 C2.68 5 1.36 5 0 5 C-0.66 7.64 -1.32 10.28 -2 13 C-3.32 13 -4.64 13 -6 13 C-6 14.32 -6 15.64 -6 17 C-6.66 17 -7.32 17 -8 17 C-8 17.66 -8 18.32 -8 19 C-8.99 19 -9.98 19 -11 19 C-10.53952805 13.8760249 -7.9210675 10.6724299 -4.9375 6.6875 C-4.46505859 6.04232422 -3.99261719 5.39714844 -3.50585938 4.73242188 C-2.34490296 3.14929949 -1.17347664 1.57386431 0 0 Z " fill="#3A958D" transform="translate(864,172)"/>
<path d="M0 0 C0.66 0.66 1.32 1.32 2 2 C0.26703814 4.19227989 -0.60159308 4.9403808 -3.41081238 5.36076355 C-4.83977592 5.3507708 -4.83977592 5.3507708 -6.29760742 5.34057617 C-7.37850143 5.34034958 -8.45939545 5.34012299 -9.57304382 5.33988953 C-11.32159416 5.31666374 -11.32159416 5.31666374 -13.10546875 5.29296875 C-14.29981033 5.28872391 -15.49415192 5.28447906 -16.72468567 5.28010559 C-20.54585144 5.26328959 -24.36649316 5.22563093 -28.1875 5.1875 C-30.77538302 5.17245699 -33.36327429 5.15876792 -35.95117188 5.14648438 C-42.30096058 5.11337645 -48.65044286 5.06314762 -55 5 C-55 4.34 -55 3.68 -55 3 C-52.0415846 2.01386153 -50.18130742 1.88918062 -47.10131836 1.91821289 C-46.10696274 1.9247438 -45.11260712 1.93127472 -44.08811951 1.93800354 C-43.01618851 1.94943893 -41.94425751 1.96087433 -40.83984375 1.97265625 C-38.58007963 1.98529807 -36.32031393 1.99765935 -34.06054688 2.00976562 C-30.48977769 2.03464303 -26.91908986 2.06267157 -23.34838867 2.09594727 C-19.90803487 2.1260323 -16.46778661 2.14388532 -13.02734375 2.16015625 C-11.95338852 2.17361588 -10.87943329 2.1870755 -9.77293396 2.20094299 C-8.28612877 2.20601112 -8.28612877 2.20601112 -6.76928711 2.21118164 C-5.45715492 2.22236778 -5.45715492 2.22236778 -4.11851501 2.23377991 C-1.78262469 2.19947892 -1.78262469 2.19947892 0 0 Z " fill="#2C9588" transform="translate(792,253)"/>
<path d="M0 0 C0.99 0.495 0.99 0.495 2 1 C3.6027098 1.11856636 5.21005353 1.17706124 6.81689453 1.20532227 C7.81778107 1.22526749 8.8186676 1.24521271 9.84988403 1.26576233 C11.47493362 1.29083107 11.47493362 1.29083107 13.1328125 1.31640625 C14.23978485 1.33718735 15.3467572 1.35796844 16.48727417 1.37937927 C20.03311799 1.44490991 23.57903754 1.50377614 27.125 1.5625 C29.5247475 1.60568187 31.92448727 1.64929605 34.32421875 1.69335938 C40.21606513 1.80059488 46.10798731 1.90235472 52 2 C52 2.66 52 3.32 52 4 C35.17 4 18.34 4 1 4 C0.67 2.68 0.34 1.36 0 0 Z " fill="#24867C" transform="translate(872,254)"/>
<path d="M0 0 C0.99 0.33 1.98 0.66 3 1 C2.14628674 6.64546361 -0.5529226 10.18582196 -3.8125 14.75 C-4.34681641 15.52988281 -4.88113281 16.30976563 -5.43164062 17.11328125 C-5.95564453 17.85449219 -6.47964844 18.59570312 -7.01953125 19.359375 C-7.49495361 20.03452148 -7.97037598 20.70966797 -8.46020508 21.40527344 C-10.25542583 23.26453806 -11.47880725 23.62126112 -14 24 C-14 22.68 -14 21.36 -14 20 C-13.34 20 -12.68 20 -12 20 C-12 19.34 -12 18.68 -12 18 C-11.34 18 -10.68 18 -10 18 C-10.33 16.68 -10.66 15.36 -11 14 C-10.01 14 -9.02 14 -8 14 C-8 13.34 -8 12.68 -8 12 C-7.34 12 -6.68 12 -6 12 C-6 10.68 -6 9.36 -6 8 C-5.34 8 -4.68 8 -4 8 C-4 7.34 -4 6.68 -4 6 C-3.34 6 -2.68 6 -2 6 C-2 4.68 -2 3.36 -2 2 C-1.34 2 -0.68 2 0 2 C0 1.34 0 0.68 0 0 Z " fill="#46A79C" transform="translate(812,221)"/>
<path d="M0 0 C4.79881376 1.59960459 6.76012163 5.73416613 9.625 9.75 C10.5221875 10.96816406 10.5221875 10.96816406 11.4375 12.2109375 C12.00726562 13.00242187 12.57703125 13.79390625 13.1640625 14.609375 C13.94450928 15.6917041 13.94450928 15.6917041 14.74072266 16.79589844 C16.11899468 19.20827529 16.60335543 21.26489263 17 24 C15.35 23.67 13.7 23.34 12 23 C12 21.68 12 20.36 12 19 C11.34 19 10.68 19 10 19 C10 18.34 10 17.68 10 17 C9.34 17 8.68 17 8 17 C8 16.34 8 15.68 8 15 C7.34 15 6.68 15 6 15 C4.74335022 12.09399739 4 10.20395416 4 7 C3.34 7 2.68 7 2 7 C1.34 4.69 0.68 2.38 0 0 Z " fill="#3FA397" transform="translate(820,110)"/>
<path d="M0 0 C0.99 0.33 1.98 0.66 3 1 C2.67 1.99 2.34 2.98 2 4 C1.34 4 0.68 4 0 4 C0 5.65 0 7.3 0 9 C-1.32 9.33 -2.64 9.66 -4 10 C-4 11.32 -4 12.64 -4 14 C-4.99 14.495 -4.99 14.495 -6 15 C-6.33 15.99 -6.66 16.98 -7 18 C-7.99 18 -8.98 18 -10 18 C-10 18.66 -10 19.32 -10 20 C-12 21.625 -12 21.625 -14 23 C-13.69029212 16.85423421 -10.66556348 13.32857635 -7 8.6875 C-6.44054687 7.95982422 -5.88109375 7.23214844 -5.3046875 6.48242188 C-1.32442602 1.32442602 -1.32442602 1.32442602 0 0 Z " fill="#36A495" transform="translate(774,205)"/>
<path d="M0 0 C0.66 0 1.32 0 2 0 C2 0.66 2 1.32 2 2 C2.66 2 3.32 2 4 2 C4 3.32 4 4.64 4 6 C4.66 6 5.32 6 6 6 C6 6.66 6 7.32 6 8 C6.66 8 7.32 8 8 8 C8 8.66 8 9.32 8 10 C8.66 10 9.32 10 10 10 C10 11.32 10 12.64 10 14 C10.66 14 11.32 14 12 14 C12 14.66 12 15.32 12 16 C13.32 16.66 14.64 17.32 16 18 C15.625 19.9375 15.625 19.9375 15 22 C14.34 22.33 13.68 22.66 13 23 C10.85179669 20.04338097 8.70684386 17.08441906 6.5625 14.125 C5.95083984 13.28324219 5.33917969 12.44148438 4.70898438 11.57421875 C4.12568359 10.76855469 3.54238281 9.96289062 2.94140625 9.1328125 C2.40201416 8.38918457 1.86262207 7.64555664 1.30688477 6.87939453 C0 5 0 5 -1 3 C-0.34 3 0.32 3 1 3 C0.67 2.01 0.34 1.02 0 0 Z " fill="#43A69A" transform="translate(750,83)"/>
<path d="M0 0 C16.83 0 33.66 0 51 0 C51 0.33 51 0.66 51 1 C33.84 1.66 16.68 2.32 -1 3 C-0.67 2.01 -0.34 1.02 0 0 Z " fill="#79C1BB" transform="translate(738,66)"/>
<path d="M0 0 C0.66 0 1.32 0 2 0 C2.85315763 2.36872095 3.23216965 3.49905858 2.15136719 5.83105469 C1.70438477 6.43852539 1.25740234 7.04599609 0.796875 7.671875 C0.31089844 8.33574219 -0.17507813 8.99960938 -0.67578125 9.68359375 C-1.19527344 10.36550781 -1.71476563 11.04742187 -2.25 11.75 C-3.00603516 12.79607422 -3.00603516 12.79607422 -3.77734375 13.86328125 C-6.61313839 17.66666986 -6.61313839 17.66666986 -8 19 C-8.99 19 -9.98 19 -11 19 C-11.33 18.01 -11.66 17.02 -12 16 C-11.34 16 -10.68 16 -10 16 C-10 14.68 -10 13.36 -10 12 C-9.34 12 -8.68 12 -8 12 C-7.67 11.01 -7.34 10.02 -7 9 C-6.01 8.67 -5.02 8.34 -4 8 C-3.28293018 6.01751285 -2.61709587 4.01584651 -2 2 C-1.34 1.34 -0.68 0.68 0 0 Z " fill="#44A69A" transform="translate(908,89)"/>
<path d="M0 0 C4.07901616 0.69536069 5.49157662 2.48238166 7.90625 5.8203125 C8.3496875 6.45710937 8.793125 7.09390625 9.25 7.75 C9.70890625 8.37132812 10.1678125 8.99265625 10.640625 9.6328125 C13.14154383 13.16089442 14.6520889 15.50401865 14 20 C12 19 12 19 11 16 C8.98491642 15.26676204 8.98491642 15.26676204 7 15 C7 14.34 7 13.68 7 13 C6.34 13 5.68 13 5 13 C5.33 11.68 5.66 10.36 6 9 C5.34 9 4.68 9 4 9 C4 7.68 4 6.36 4 5 C2.68 5 1.36 5 0 5 C0 3.35 0 1.7 0 0 Z " fill="#35938B" transform="translate(890,208)"/>
<path d="M0 0 C1.35015859 4.05047576 0.62084998 6.7920168 0 11 C0.66 11 1.32 11 2 11 C2.33 12.65 2.66 14.3 3 16 C3.99 16.33 4.98 16.66 6 17 C6 18.32 6 19.64 6 21 C6.66 21 7.32 21 8 21 C7.67 21.99 7.34 22.98 7 24 C6.34 24 5.68 24 5 24 C3.38371173 21.94775875 1.89979273 19.90763256 0.4375 17.75 C0.02564453 17.16347656 -0.38621094 16.57695313 -0.81054688 15.97265625 C-4.88198833 10.04207869 -4.88198833 10.04207869 -5 7 C-4.00390625 5.078125 -4.00390625 5.078125 -2.5625 3.25 C-2.08941406 2.63640625 -1.61632812 2.0228125 -1.12890625 1.390625 C-0.75636719 0.93171875 -0.38382813 0.4728125 0 0 Z " fill="#46A79B" transform="translate(844,108)"/>
<path d="M0 0 C0.33 0 0.66 0 1 0 C1 1.65 1 3.3 1 5 C16.18 5 31.36 5 47 5 C47 4.34 47 3.68 47 3 C48.32 3.33 49.64 3.66 51 4 C49 6 49 6 46.78536987 6.24050903 C45.40637009 6.2338472 45.40637009 6.2338472 43.99951172 6.22705078 C42.95858368 6.22689972 41.91765564 6.22674866 40.84518433 6.22659302 C39.1545134 6.21110916 39.1545134 6.21110916 37.4296875 6.1953125 C36.27832306 6.1924826 35.12695862 6.18965271 33.94070435 6.18673706 C30.25203188 6.17551408 26.56359947 6.15040556 22.875 6.125 C20.37890975 6.11497294 17.8828157 6.10584662 15.38671875 6.09765625 C9.25773016 6.07556784 3.12888223 6.04206947 -3 6 C-2 4 -1 2 0 0 Z " fill="#48A89C" transform="translate(741,250)"/>
<path d="M0 0 C0.56610454 4.83842472 -1.09171728 7.04082085 -4 10.8125 C-4.7425 11.78832031 -5.485 12.76414062 -6.25 13.76953125 C-6.8275 14.50558594 -7.405 15.24164063 -8 16 C-8.99 15.67 -9.98 15.34 -11 15 C-11 14.01 -11 13.02 -11 12 C-10.34 12 -9.68 12 -9 12 C-9 10.68 -9 9.36 -9 8 C-8.34 8 -7.68 8 -7 8 C-7 6.68 -7 5.36 -7 4 C-2.77777778 0 -2.77777778 0 0 0 Z " fill="#41A599" transform="translate(893,113)"/>
<path d="M0 0 C0.33 0 0.66 0 1 0 C0.87945194 3.87381781 0.75513144 7.74749661 0.62768555 11.62109375 C0.56436561 13.56764815 0.50382035 15.5142922 0.44335938 17.4609375 C0.16030236 25.99619519 -0.32834561 34.48688358 -1 43 C-1.33 43 -1.66 43 -2 43 C-2.19585353 39.02119772 -2.3802867 35.04194844 -2.5625 31.0625 C-2.61857422 29.92619141 -2.67464844 28.78988281 -2.73242188 27.61914062 C-2.78076172 26.53955078 -2.82910156 25.45996094 -2.87890625 24.34765625 C-2.9260376 23.34742432 -2.97316895 22.34719238 -3.02172852 21.31665039 C-3 19 -3 19 -2 18 C-1.78871644 15.35015201 -1.62387334 12.71660103 -1.5 10.0625 C-1.13434803 2.26869607 -1.13434803 2.26869607 0 0 Z " fill="#50AFA5" transform="translate(948,7)"/>
<path d="M0 0 C2.64 0 5.28 0 8 0 C8 0.66 8 1.32 8 2 C8.66 2 9.32 2 10 2 C10.33 3.32 10.66 4.64 11 6 C9.88625 5.7525 9.88625 5.7525 8.75 5.5 C5.80993422 4.88074304 5.80993422 4.88074304 2 5 C0.9739266 6.31337396 -0.02727325 7.64664105 -1 9 C-1.99 9 -2.98 9 -4 9 C-3.125 4.25 -3.125 4.25 -2 2 C-1.34 2 -0.68 2 0 2 C0 1.34 0 0.68 0 0 Z " fill="#3CA699" transform="translate(918,75)"/>
<path d="M0 0 C1.66621616 0.03874921 3.33394172 0.0450286 5 0 C4.67 0.66 4.34 1.32 4 2 C1.53125 2.81640625 1.53125 2.81640625 -1.5 3.5625 C-5.04788817 4.20840612 -5.04788817 4.20840612 -8 6 C-9.69141656 5.91036938 -11.37959602 5.75422324 -13.0625 5.5625 C-14.44115234 5.40974609 -14.44115234 5.40974609 -15.84765625 5.25390625 C-16.55792969 5.17011719 -17.26820313 5.08632812 -18 5 C-14.99390278 2.99593518 -12.40757305 1.96923742 -9 0.8125 C-7.948125 0.44769531 -6.89625 0.08289063 -5.8125 -0.29296875 C-3 -1 -3 -1 0 0 Z " fill="#49ACA1" transform="translate(938,9)"/>
<path d="M0 0 C3.26251798 0.26250145 4.11637782 1.1254906 6.39453125 3.58203125 C7.21148537 4.65055957 8.01719575 5.72776135 8.8125 6.8125 C9.23208984 7.34681641 9.65167969 7.88113281 10.08398438 8.43164062 C13.05836012 12.41544208 13.05836012 12.41544208 12.76171875 15.38671875 C12.51035156 15.91910156 12.25898437 16.45148438 12 17 C11.34 16.67 10.68 16.34 10 16 C10 15.01 10 14.02 10 13 C8.68 12.67 7.36 12.34 6 12 C6 10.68 6 9.36 6 8 C5.34 8 4.68 8 4 8 C4 7.34 4 6.68 4 6 C2.68 5.67 1.36 5.34 0 5 C0 3.35 0 1.7 0 0 Z " fill="#3C938C" transform="translate(908,233)"/>
<path d="M0 0 C0.99 0 1.98 0 3 0 C3 4.29 3 8.58 3 13 C-2 11 -2 11 -4 8 C-3.67670292 4.65926348 -2.26276115 2.43681971 0 0 Z " fill="#329288" transform="translate(843,202)"/>
<path d="M0 0 C2 2 2 2 2 6 C1.34 6 0.68 6 0 6 C0 6.66 0 7.32 0 8 C-0.66 8 -1.32 8 -2 8 C-2 9.32 -2 10.64 -2 12 C-2.66 12 -3.32 12 -4 12 C-4 12.66 -4 13.32 -4 14 C-4.66 14 -5.32 14 -6 14 C-6 14.66 -6 15.32 -6 16 C-6.66 16 -7.32 16 -8 16 C-8.56610454 11.16157528 -6.90828272 8.95917915 -4 5.1875 C-3.2575 4.21167969 -2.515 3.23585937 -1.75 2.23046875 C-1.1725 1.49441406 -0.595 0.75835937 0 0 Z " fill="#3DA69B" transform="translate(882,55)"/>
<path d="M0 0 C0.33 0.99 0.66 1.98 1 3 C1.66 3 2.32 3 3 3 C2.11917098 8.4611399 2.11917098 8.4611399 1 11 C-2.125 12.5 -2.125 12.5 -5 13 C-5.64165788 7.73840541 -4.20577001 5.31407151 -1.09375 1.3203125 C-0.55234375 0.66675781 -0.55234375 0.66675781 0 0 Z " fill="#35A597" transform="translate(873,68)"/>
<path d="M0 0 C0.66 0 1.32 0 2 0 C2.03758423 0.97610229 2.03758423 0.97610229 2.07592773 1.97192383 C2.19193702 4.91898046 2.31464115 7.8657213 2.4375 10.8125 C2.47681641 11.83666016 2.51613281 12.86082031 2.55664062 13.91601562 C2.59853516 14.89892578 2.64042969 15.88183594 2.68359375 16.89453125 C2.72025146 17.80050049 2.75690918 18.70646973 2.79467773 19.63989258 C2.9208205 22.15048782 2.9208205 22.15048782 4 25 C2.68 24.67 1.36 24.34 0 24 C0 16.08 0 8.16 0 0 Z " fill="#25282C" transform="translate(201,115)"/>
<path d="M0 0 C0.99 0 1.98 0 3 0 C3 1.32 3 2.64 3 4 C3.66 4 4.32 4 5 4 C5 4.66 5 5.32 5 6 C5.99 6.33 6.98 6.66 8 7 C10.1875 8.9375 10.1875 8.9375 12 11 C12 11.66 12 12.32 12 13 C8.8125 13 8.8125 13 5 12 C2.90295564 9.54479707 1.42723008 6.88734564 0 4 C0.66 4 1.32 4 2 4 C1.34 2.68 0.68 1.36 0 0 Z " fill="#36A295" transform="translate(767,107)"/>
<path d="M0 0 C0.66 0 1.32 0 2 0 C2.7421875 1.640625 2.7421875 1.640625 3 4 C1.3828125 6.796875 1.3828125 6.796875 -0.875 9.75 C-1.61492188 10.73484375 -2.35484375 11.7196875 -3.1171875 12.734375 C-3.73851562 13.48203125 -4.35984375 14.2296875 -5 15 C-5.33 15 -5.66 15 -6 15 C-6 13.02 -6 11.04 -6 9 C-5.67 9 -5.34 9 -5 9 C-4.67 7.35 -4.34 5.7 -4 4 C-3.34 4 -2.68 4 -2 4 C-1.34 2.68 -0.68 1.36 0 0 Z " fill="#4CABA0" transform="translate(844,177)"/>
<path d="M0 0 C0.66 0.33 1.32 0.66 2 1 C0.70970987 7.19339263 -1.9964167 11.15289443 -6 16 C-6.66 15.34 -7.32 14.68 -8 14 C-7.64644564 11.73725212 -7.02455574 10.04911148 -6 8 C-5.34 8 -4.68 8 -4 8 C-4 6.68 -4 5.36 -4 4 C-2.68 4 -1.36 4 0 4 C0 2.68 0 1.36 0 0 Z " fill="#4CACA1" transform="translate(830,197)"/>
<path d="M0 0 C2 4 2 4 2 7 C1.34 7 0.68 7 0 7 C0 7.66 0 8.32 0 9 C-0.66 9 -1.32 9 -2 9 C-2 9.66 -2 10.32 -2 11 C-2.66 11 -3.32 11 -4 11 C-4 11.66 -4 12.32 -4 13 C-5.32 12.34 -6.64 11.68 -8 11 C-5.36 7.37 -2.72 3.74 0 0 Z " fill="#47AEA0" transform="translate(860,86)"/>
<path d="M0 0 C1.32 0 2.64 0 4 0 C4 0.66 4 1.32 4 2 C4.66 2 5.32 2 6 2 C6 2.66 6 3.32 6 4 C6.804375 4.268125 7.60875 4.53625 8.4375 4.8125 C9.283125 5.204375 10.12875 5.59625 11 6 C11.33 6.99 11.66 7.98 12 9 C10.296875 9.71484375 10.296875 9.71484375 8 10 C5.640625 8.56640625 5.640625 8.56640625 3.25 6.5625 C2.05117188 5.57443359 2.05117188 5.57443359 0.828125 4.56640625 C0.22484375 4.04949219 -0.3784375 3.53257813 -1 3 C-0.67 2.01 -0.34 1.02 0 0 Z " fill="#48ABA0" transform="translate(928,79)"/>
<path d="M0 0 C5.25268963 4.72742067 6.18814935 9.09926952 7 16 C6.34 16 5.68 16 5 16 C5 14.68 5 13.36 5 12 C4.34 12 3.68 12 3 12 C3 10.68 3 9.36 3 8 C1.68 7.34 0.36 6.68 -1 6 C-0.67 4.02 -0.34 2.04 0 0 Z " fill="#4CAEA2" transform="translate(815,101)"/>
<path d="M0 0 C0.33 0 0.66 0 1 0 C1 1.98 1 3.96 1 6 C0.34 6 -0.32 6 -1 6 C-1.33 6.99 -1.66 7.98 -2 9 C-2.33 9.99 -2.66 10.98 -3 12 C-3.66 12 -4.32 12 -5 12 C-5.33 13.32 -5.66 14.64 -6 16 C-6.66 15.34 -7.32 14.68 -8 14 C-7.67729497 10.28889217 -5.61612174 7.71603948 -3.5 4.75 C-2.8709375 3.85796875 -2.241875 2.9659375 -1.59375 2.046875 C-1.0678125 1.37140625 -0.541875 0.6959375 0 0 Z " fill="#46AEA1" transform="translate(759,225)"/>
<path d="M0 0 C0.99 0.33 1.98 0.66 3 1 C3.33 1.99 3.66 2.98 4 4 C-2.63157895 8.05263158 -2.63157895 8.05263158 -5 9 C-5.99 8.67 -6.98 8.34 -8 8 C-8 7.34 -8 6.68 -8 6 C-6.35546875 4.45703125 -6.35546875 4.45703125 -4.1875 2.8125 C-3.47980469 2.26207031 -2.77210938 1.71164063 -2.04296875 1.14453125 C-1.36878906 0.76683594 -0.69460938 0.38914063 0 0 Z " fill="#3B3D42" transform="translate(279,178)"/>
<path d="M0 0 C0.75410156 0.00322266 1.50820313 0.00644531 2.28515625 0.00976562 C3.06246094 0.01814453 3.83976562 0.02652344 4.640625 0.03515625 C5.43339844 0.03966797 6.22617187 0.04417969 7.04296875 0.04882812 C8.99222008 0.0605706 10.94143238 0.07850479 12.890625 0.09765625 C13.220625 0.75765625 13.550625 1.41765625 13.890625 2.09765625 C5.970625 2.42765625 -1.949375 2.75765625 -10.109375 3.09765625 C-7.08726821 0.07554946 -4.14583877 -0.03140787 0 0 Z " fill="#24292C" transform="translate(316.109375,144.90234375)"/>
<path d="M0 0 C2.1875 0.3125 2.1875 0.3125 4 1 C0.25 4 0.25 4 -2 4 C-2 4.99 -2 5.98 -2 7 C-1.34 7.33 -0.68 7.66 0 8 C-1.32 8 -2.64 8 -4 8 C-4.33 8.66 -4.66 9.32 -5 10 C-6.92713818 11.76164986 -8.96823666 13.35729773 -11 15 C-10.40952677 11.43322251 -9.04264332 9.58466641 -6.625 6.9375 C-6.01914063 6.26589844 -5.41328125 5.59429687 -4.7890625 4.90234375 C-3.90347656 3.96068359 -3.90347656 3.96068359 -3 3 C-2.47535156 2.41734375 -1.95070312 1.8346875 -1.41015625 1.234375 C-0.71212891 0.62335938 -0.71212891 0.62335938 0 0 Z " fill="#292B30" transform="translate(217,120)"/>
<path d="M0 0 C0 0.66 0 1.32 0 2 C0.66 2.33 1.32 2.66 2 3 C1.34 3 0.68 3 0 3 C0 3.99 0 4.98 0 6 C0.66 6 1.32 6 2 6 C2.33 7.98 2.66 9.96 3 12 C-1.21073233 10.49616703 -2.83237117 7.79335044 -5 4 C-5 3.01 -5 2.02 -5 1 C-2 0 -2 0 0 0 Z " fill="#328D84" transform="translate(860,229)"/>
<path d="M0 0 C0.66 0.33 1.32 0.66 2 1 C2.02698422 3.43757413 2.04683099 5.87484915 2.0625 8.3125 C2.07087891 9.00279297 2.07925781 9.69308594 2.08789062 10.40429688 C2.10307906 13.5483025 2.00193327 15.99420019 1 19 C-0.32 18.67 -1.64 18.34 -3 18 C-2.34 18 -1.68 18 -1 18 C-0.505 9.09 -0.505 9.09 0 0 Z " fill="#222629" transform="translate(732,180)"/>
<path d="M0 0 C0.66 0.33 1.32 0.66 2 1 C2 2.98 2 4.96 2 7 C-3.94 7 -9.88 7 -16 7 C-16 6.34 -16 5.68 -16 5 C-10.72 5 -5.44 5 0 5 C0 3.35 0 1.7 0 0 Z " fill="#222629" transform="translate(249,145)"/>
<path d="M0 0 C0.66 0 1.32 0 2 0 C2.05418326 2.08304538 2.09287551 4.16649768 2.125 6.25 C2.14820313 7.41015625 2.17140625 8.5703125 2.1953125 9.765625 C2.0103949 12.82786046 1.60823023 14.44202751 0 17 C-0.33 17 -0.66 17 -1 17 C-1.02691685 14.54159395 -1.04679802 12.08348118 -1.0625 9.625 C-1.07087891 8.92632812 -1.07925781 8.22765625 -1.08789062 7.5078125 C-1.11328125 2.2265625 -1.11328125 2.2265625 0 0 Z " fill="#525558" transform="translate(353,199)"/>
<path d="M0 0 C-0.66 0.66 -1.32 1.32 -2 2 C-2.66 2 -3.32 2 -4 2 C-4.33 3.32 -4.66 4.64 -5 6 C-7.31 6.33 -9.62 6.66 -12 7 C-12 5.68 -12 4.36 -12 3 C-10.3789897 2.30314502 -8.75303934 1.61777139 -7.125 0.9375 C-6.22007812 0.55464844 -5.31515625 0.17179687 -4.3828125 -0.22265625 C-2 -1 -2 -1 0 0 Z " fill="#50AA9F" transform="translate(878,30)"/>
<path d="M0 0 C4.44907205 1.48302402 6.74579392 5.08285501 9 9 C9 9.66 9 10.32 9 11 C3.25 9.125 3.25 9.125 1 8 C0.40644386 5.35139573 0.25790731 2.70802678 0 0 Z " fill="#2F8E85" transform="translate(873,183)"/>
<path d="M0 0 C0.45375 0.474375 0.9075 0.94875 1.375 1.4375 C2.93258204 3.09027808 2.93258204 3.09027808 5 4 C2.69 7.63 0.38 11.26 -2 15 C-2.95904856 11.16380575 -2.91892116 9.67568464 -2 6 C-1.34 6 -0.68 6 0 6 C0 4.02 0 2.04 0 0 Z " fill="#50ABA0" transform="translate(854,159)"/>
<path d="M0 0 C0.66 0 1.32 0 2 0 C2 1.98 2 3.96 2 6 C1.34 6 0.68 6 0 6 C0 6.66 0 7.32 0 8 C-0.66 8 -1.32 8 -2 8 C-2.28875 8.61875 -2.5775 9.2375 -2.875 9.875 C-4 12 -4 12 -6 14 C-6 11 -6 11 -4 8 C-4 7.01 -4 6.02 -4 5 C-3.67 4.34 -3.34 3.68 -3 3 C-2.01 3 -1.02 3 0 3 C0 2.01 0 1.02 0 0 Z " fill="#3FAA9C" transform="translate(806,161)"/>
<path d="M0 0 C4.20763224 1.5027258 5.8027758 4.23332995 8 8 C8 8.66 8 9.32 8 10 C8.66 10.33 9.32 10.66 10 11 C9.34 11 8.68 11 8 11 C7.67 11.99 7.34 12.98 7 14 C5.02 11.03 3.04 8.06 1 5 C1.66 5 2.32 5 3 5 C2.01 3.35 1.02 1.7 0 0 Z " fill="#47ADA0" transform="translate(796,147)"/>
<path d="M0 0 C0.84755859 0.00322266 1.69511719 0.00644531 2.56835938 0.00976562 C3.8899707 0.02233398 3.8899707 0.02233398 5.23828125 0.03515625 C6.57729492 0.04192383 6.57729492 0.04192383 7.94335938 0.04882812 C10.14590112 0.06060642 12.34830724 0.07705461 14.55078125 0.09765625 C14.55078125 0.42765625 14.55078125 0.75765625 14.55078125 1.09765625 C9.27078125 1.09765625 3.99078125 1.09765625 -1.44921875 1.09765625 C-1.44921875 3.07765625 -1.44921875 5.05765625 -1.44921875 7.09765625 C-2.10921875 6.76765625 -2.76921875 6.43765625 -3.44921875 6.09765625 C-3.44921875 5.43765625 -3.44921875 4.77765625 -3.44921875 4.09765625 C-4.76921875 3.76765625 -6.08921875 3.43765625 -7.44921875 3.09765625 C-7.44921875 2.43765625 -7.44921875 1.77765625 -7.44921875 1.09765625 C-4.6251011 0.1562837 -2.92003843 -0.01959757 0 0 Z " fill="#489F93" transform="translate(745.44921875,67.90234375)"/>
<path d="M0 0 C4.11045466 0.03709797 7.48755942 0.89168647 11.375 2.1875 C11.375 2.8475 11.375 3.5075 11.375 4.1875 C9.27021396 4.07340318 7.16615423 3.94584639 5.0625 3.8125 C3.89074219 3.74289063 2.71898437 3.67328125 1.51171875 3.6015625 C-1.625 3.1875 -1.625 3.1875 -4.625 1.1875 C-3.625 0.1875 -3.625 0.1875 0 0 Z " fill="#3A3E43" transform="translate(333.625,192.8125)"/>
<path d="M0 0 C0.81210937 0.55300781 0.81210937 0.55300781 1.640625 1.1171875 C-1.5510268 3.94057179 -4.12768241 4.74103705 -8.359375 5.1171875 C-8.689375 4.7871875 -9.019375 4.4571875 -9.359375 4.1171875 C-10.68531605 3.75556721 -12.01875957 3.41990711 -13.359375 3.1171875 C-11.61703675 2.39021189 -9.86510155 1.68620506 -8.109375 0.9921875 C-7.13484375 0.59773438 -6.1603125 0.20328125 -5.15625 -0.203125 C-2.359375 -0.8828125 -2.359375 -0.8828125 0 0 Z " fill="#47ADA0" transform="translate(906.359375,19.8828125)"/>
<path d="M0 0 C1.65 0.33 3.3 0.66 5 1 C4.75 4.375 4.75 4.375 4 8 C1.9375 9.4375 1.9375 9.4375 0 10 C-0.95024979 6.30458414 -0.95024979 3.69541586 0 0 Z " fill="#3AA696" transform="translate(884,49)"/>
<path d="M0 0 C0.66 0 1.32 0 2 0 C2 2.31 2 4.62 2 7 C0.68 7 -0.64 7 -2 7 C-2 8.32 -2 9.64 -2 11 C-2.66 11 -3.32 11 -4 11 C-4.35858439 7.14521782 -4.2754818 5.42240542 -2.125 2.125 C-1.42375 1.42375 -0.7225 0.7225 0 0 Z " fill="#35A094" transform="translate(746,244)"/>
<path d="M0 0 C1.32 0 2.64 0 4 0 C2.7508258 3.45925163 1.32472205 6.14693203 -1 9 C-1.99 8.67 -2.98 8.34 -4 8 C-4 6.35 -4 4.7 -4 3 C-2.68 2.67 -1.36 2.34 0 2 C0 1.34 0 0.68 0 0 Z " fill="#52ADA2" transform="translate(796,245)"/>
<path d="M0 0 C1.65 0 3.3 0 5 0 C5 0.66 5 1.32 5 2 C5.66 2 6.32 2 7 2 C7.33 4.97 7.66 7.94 8 11 C4.32966073 7.72291137 2.30718811 4.28477792 0 0 Z " fill="#469F94" transform="translate(847,221)"/>
<path d="M0 0 C4.58826282 1.93726652 6.80528594 3.48864333 9 8 C8.34 8 7.68 8 7 8 C6.67 8.66 6.34 9.32 6 10 C5.34 9.67 4.68 9.34 4 9 C4 8.34 4 7.68 4 7 C3.34 7 2.68 7 2 7 C2 5.68 2 4.36 2 3 C1.34 3 0.68 3 0 3 C0 2.01 0 1.02 0 0 Z " fill="#3C978E" transform="translate(878,192)"/>
<path d="M0 0 C1.65 0 3.3 0 5 0 C5 0.66 5 1.32 5 2 C6.32 2.66 7.64 3.32 9 4 C8.625 5.9375 8.625 5.9375 8 8 C7.01 8.495 7.01 8.495 6 9 C4.02 6.03 2.04 3.06 0 0 Z " fill="#50AFA3" transform="translate(757,97)"/>
<path d="M0 0 C0.66 0 1.32 0 2 0 C1.23638491 3.31424694 0.19662251 6.48199903 -0.9375 9.6875 C-1.27652344 10.66074219 -1.61554688 11.63398438 -1.96484375 12.63671875 C-3 15 -3 15 -5 16 C-4.55643705 9.79011871 -3.08467498 5.39459439 0 0 Z " fill="#23272B" transform="translate(424,144)"/>
<path d="M0 0 C2.96404505 2.80804268 5.44499019 5.18315774 7 9 C6.01 9 5.02 9 4 9 C3.67 9.66 3.34 10.32 3 11 C1 8 1 8 1 5 C0.34 5 -0.32 5 -1 5 C-0.67 3.35 -0.34 1.7 0 0 Z " fill="#50ADA3" transform="translate(837,132)"/>
<path d="M0 0 C2 2 2 2 2.1953125 4.3828125 C2.17210937 5.28773437 2.14890625 6.19265625 2.125 7.125 C2.10695313 8.03507812 2.08890625 8.94515625 2.0703125 9.8828125 C2.04710937 10.58148438 2.02390625 11.28015625 2 12 C-1.26011642 11.30621489 -2.79038253 10.54106009 -5 8 C-4.67 7.34 -4.34 6.68 -4 6 C-2.68 6.66 -1.36 7.32 0 8 C0 5.36 0 2.72 0 0 Z " fill="#45A091" transform="translate(942,81)"/>
<path d="M0 0 C2.95929119 2.75520215 5.03681826 5.46627288 7 9 C5.35 9 3.7 9 2 9 C1.34 7.68 0.68 6.36 0 5 C-0.66 5 -1.32 5 -2 5 C-1.34 3.35 -0.68 1.7 0 0 Z " fill="#449B94" transform="translate(904,224)"/>
<path d="M0 0 C2.64 0.33 5.28 0.66 8 1 C8 2.98 8 4.96 8 7 C7.34 7 6.68 7 6 7 C6 5.68 6 4.36 6 3 C5.01 3.495 5.01 3.495 4 4 C4.33 4.99 4.66 5.98 5 7 C3.0625 6.3125 3.0625 6.3125 1 5 C0.25 2.375 0.25 2.375 0 0 Z " fill="#32A495" transform="translate(764,104)"/>
<path d="M0 0 C-1.48868707 4.60139641 -3.74629855 7.50227094 -7 11 C-7.66 11 -8.32 11 -9 11 C-9 9.68 -9 8.36 -9 7 C-8.34 6.67 -7.68 6.34 -7 6 C-6.67 5.01 -6.34 4.02 -6 3 C-2.55555556 0 -2.55555556 0 0 0 Z " fill="#56A69D" transform="translate(874,142)"/>
<path d="M0 0 C1.32 0.33 2.64 0.66 4 1 C2.64531705 5.87685861 0.28324091 7.48592381 -4 10 C-4.33 9.01 -4.66 8.02 -5 7 C-4.34 7 -3.68 7 -3 7 C-3 6.34 -3 5.68 -3 5 C-2.34 5 -1.68 5 -1 5 C-0.67 3.35 -0.34 1.7 0 0 Z " fill="#41A59A" transform="translate(875,134)"/>
<path d="M0 0 C-0.66 1.32 -1.32 2.64 -2 4 C-2.66 4 -3.32 4 -4 4 C-4.268125 4.598125 -4.53625 5.19625 -4.8125 5.8125 C-5.99308761 7.98726664 -7.26816512 9.26816512 -9 11 C-9.33 11.99 -9.66 12.98 -10 14 C-10.66 13.67 -11.32 13.34 -12 13 C-10.66182195 9.02031425 -8.99662286 6.61251238 -6 3.6875 C-5.29875 2.99011719 -4.5975 2.29273438 -3.875 1.57421875 C-2 0 -2 0 0 0 Z " fill="#222529" transform="translate(441,126)"/>
<path d="M0 0 C0.99 0 1.98 0 3 0 C3 0.66 3 1.32 3 2 C3.66 2 4.32 2 5 2 C5.33 4.64 5.66 7.28 6 10 C5.34 10 4.68 10 4 10 C2.67578125 8.3203125 2.67578125 8.3203125 1.3125 6.125 C0.85488281 5.40570313 0.39726563 4.68640625 -0.07421875 3.9453125 C-0.37972656 3.30335937 -0.68523438 2.66140625 -1 2 C-0.67 1.34 -0.34 0.68 0 0 Z " fill="#3DA599" transform="translate(777,121)"/>
<path d="M0 0 C4.45355865 0.28732636 8.15100832 0.5943802 12 3 C8.25 4.125 8.25 4.125 6 3 C6 3.66 6 4.32 6 5 C4.35 5.33 2.7 5.66 1 6 C1.66 4.68 2.32 3.36 3 2 C1.35 2 -0.3 2 -2 2 C-1.34 1.34 -0.68 0.68 0 0 Z " fill="#363A3D" transform="translate(674,112)"/>
<path d="M0 0 C-0.57352893 3.87132028 -2.48704352 6.08172796 -5 9 C-5.33 6.03 -5.66 3.06 -6 0 C-3.50907189 -1.24546405 -2.58919267 -0.7767578 0 0 Z " fill="#42A89B" transform="translate(821,214)"/>
<path d="M0 0 C1.32 0 2.64 0 4 0 C3.67 2.31 3.34 4.62 3 7 C1.35 7.66 -0.3 8.32 -2 9 C-3 6 -3 6 -1.5625 2.8125 C-1.046875 1.884375 -0.53125 0.95625 0 0 Z " fill="#3B3E41" transform="translate(265,191)"/>
<path d="M0 0 C0.66 0.33 1.32 0.66 2 1 C0.52307692 7.64615385 0.52307692 7.64615385 -2.125 9.4375 C-2.74375 9.623125 -3.3625 9.80875 -4 10 C-4 8.02 -4 6.04 -4 4 C-3.34 4 -2.68 4 -2 4 C-2 3.34 -2 2.68 -2 2 C-1.34 2 -0.68 2 0 2 C0 1.34 0 0.68 0 0 Z " fill="#3CA296" transform="translate(850,169)"/>
<path d="M0 0 C0 0.66 0 1.32 0 2 C-5.84560277 4.63463787 -10.54487966 6.56131481 -17 6 C-13.87247409 4.35471386 -10.6946943 3.08297501 -7.375 1.875 C-6.41335938 1.52179688 -5.45171875 1.16859375 -4.4609375 0.8046875 C-2 0 -2 0 0 0 Z " fill="#1F2225" transform="translate(701,252)"/>
<path d="M0 0 C0 0.66 0 1.32 0 2 C1.32 2.33 2.64 2.66 4 3 C3.34 3 2.68 3 2 3 C2 3.66 2 4.32 2 5 C1.38125 5.103125 0.7625 5.20625 0.125 5.3125 C-2.36526484 5.87525373 -2.36526484 5.87525373 -4 9 C-4 6.36 -4 3.72 -4 1 C-2 0 -2 0 0 0 Z " fill="#393C40" transform="translate(285,148)"/>
<path d="M0 0 C12.87 0.495 12.87 0.495 26 1 C26 1.33 26 1.66 26 2 C17.42 2.33 8.84 2.66 0 3 C0 2.01 0 1.02 0 0 Z " fill="#202429" transform="translate(165,114)"/>
<path d="M0 0 C-0.309375 0.598125 -0.61875 1.19625 -0.9375 1.8125 C-2.10209704 4.08956772 -2.10209704 4.08956772 -3 7 C-4.32 6.67 -5.64 6.34 -7 6 C-6.75 3.625 -6.75 3.625 -6 1 C-2.69333333 -1.34666667 -2.69333333 -1.34666667 0 0 Z " fill="#282C2F" transform="translate(702,215)"/>
<path d="M0 0 C0 0.99 0 1.98 0 3 C0.99 2.01 1.98 1.02 3 0 C3.66 0.33 4.32 0.66 5 1 C4 4 4 4 1 6 C0.01 6 -0.98 6 -2 6 C-2 6.66 -2 7.32 -2 8 C-2.66 8 -3.32 8 -4 8 C-3.40138258 5.64828869 -2.73075648 3.3140622 -2 1 C-1.34 0.67 -0.68 0.34 0 0 Z " fill="#32A092" transform="translate(848,105)"/>
<path d="M0 0 C4.21073233 1.50383297 5.83237117 4.20664956 8 8 C8 8.99 8 9.98 8 11 C6 11 6 11 4.5625 9.875 C2.20125146 7.04150175 0 3.77037397 0 0 Z " fill="#329E92" transform="translate(799,81)"/>
<path d="M0 0 C3.54243452 1.36591169 6.92627929 2.90931484 10.3125 4.625 C11.63701172 5.29402344 11.63701172 5.29402344 12.98828125 5.9765625 C13.65214844 6.31429687 14.31601562 6.65203125 15 7 C13.359375 7.68359375 13.359375 7.68359375 11 8 C8.203125 6.78515625 8.203125 6.78515625 5.25 5.0625 C4.26515625 4.49660156 3.2803125 3.93070313 2.265625 3.34765625 C1.51796875 2.90292969 0.7703125 2.45820313 0 2 C0 1.34 0 0.68 0 0 Z " fill="#0D1013" transform="translate(621,247)"/>
<path d="M0 0 C1.15941038 3.47823115 0.70820884 5.45895578 0 9 C-1.98 9 -3.96 9 -6 9 C-4.02 6.03 -2.04 3.06 0 0 Z " fill="#4AADA3" transform="translate(780,196)"/>
<path d="M0 0 C0.99 0 1.98 0 3 0 C4.75 2.25 4.75 2.25 6 5 C5.6875 7.3125 5.6875 7.3125 5 9 C4.67 8.34 4.34 7.68 4 7 C3.01 7 2.02 7 1 7 C0.67 4.69 0.34 2.38 0 0 Z " fill="#4DADA0" transform="translate(782,127)"/>
<path d="M0 0 C7.5273523 2.15317287 7.5273523 2.15317287 9.5 5.6875 C9.665 6.450625 9.83 7.21375 10 8 C5.99541169 7.38390949 3.16980331 5.44939347 0 3 C0 2.01 0 1.02 0 0 Z " fill="#339D90" transform="translate(874,40)"/>
<path d="M0 0 C0.99 1.0209375 0.99 1.0209375 2 2.0625 C5.49468234 5.56725347 9.25130779 8.77221788 13 12 C12.01 12.33 11.02 12.66 10 13 C8.32438946 11.40517782 6.65974066 9.79883156 5 8.1875 C3.6078125 6.84751953 3.6078125 6.84751953 2.1875 5.48046875 C0 3 0 3 0 0 Z " fill="#14161B" transform="translate(605,232)"/>
<path d="M0 0 C2.19418578 2.67118269 3.3068129 4.63309123 4 8 C4.65509503 10.00382009 5.31974363 12.00458132 6 14 C5.34 14 4.68 14 4 14 C1.28608722 9.22642128 -0.56561146 5.65611463 0 0 Z " fill="#22262A" transform="translate(420,214)"/>
<path d="M0 0 C0.66 0.66 1.32 1.32 2 2 C1.64059802 5.4742191 -0.03306709 8.16761661 -2 11 C-2.66 11 -3.32 11 -4 11 C-3.56179109 6.44262737 -3.14958831 3.42346555 0 0 Z " fill="#48ABA0" transform="translate(790,182)"/>
<path d="M0 0 C0 0.66 0 1.32 0 2 C-1.051875 2.4021875 -1.051875 2.4021875 -2.125 2.8125 C-5.1649824 4.0681449 -8.0727774 5.50235123 -11 7 C-10.875 5.1875 -10.875 5.1875 -10 3 C-6.32115375 0.71094011 -4.38448044 0 0 0 Z " fill="#393C40" transform="translate(459,116)"/>
<path d="M0 0 C5.45769811 -0.11138159 10.61509359 0.08342019 16 1 C16 1.66 16 2.32 16 3 C10.21101581 3.20674944 5.57067277 2.59162079 0 1 C0 0.67 0 0.34 0 0 Z " fill="#393E40" transform="translate(480,111)"/>
<path d="M0 0 C0.33 0 0.66 0 1 0 C1 2.31 1 4.62 1 7 C0.34 7 -0.32 7 -1 7 C-1 8.32 -1 9.64 -1 11 C-1.99 11 -2.98 11 -4 11 C-3.56534471 6.47958496 -3.21201178 3.3458456 0 0 Z " fill="#4CAC9F" transform="translate(867,76)"/>
<path d="M0 0 C0 0.99 0 1.98 0 3 C-2 5 -2 5 -4.1640625 5.1953125 C-5.38222656 5.16050781 -5.38222656 5.16050781 -6.625 5.125 C-7.44226563 5.10695313 -8.25953125 5.08890625 -9.1015625 5.0703125 C-9.72804688 5.04710937 -10.35453125 5.02390625 -11 5 C-9.71717836 2.43435673 -8.60228656 2.11526567 -6 1 C-3.88345816 0.37748769 -2.20575883 0 0 0 Z " fill="#38A094" transform="translate(884,28)"/>
<path d="M0 0 C0.99 0 1.98 0 3 0 C3 1.32 3 2.64 3 4 C3.66 4 4.32 4 5 4 C4.67 5.32 4.34 6.64 4 8 C0.26360784 6.75453595 -0.18756513 5.36595047 -2 2 C-1.34 2 -0.68 2 0 2 C0 1.34 0 0.68 0 0 Z " fill="#3D9890" transform="translate(863,239)"/>
<path d="M0 0 C1.875 0.3125 1.875 0.3125 4 1 C4.66 1.99 5.32 2.98 6 4 C5.67 4.99 5.34 5.98 5 7 C3.35 6.67 1.7 6.34 0 6 C0 4.02 0 2.04 0 0 Z " fill="#318E87" transform="translate(908,233)"/>
<path d="M0 0 C4.875 4.75 4.875 4.75 6 7 C4.35 7.33 2.7 7.66 1 8 C0.26919734 6.02253397 -0.39421747 4.01927511 -1 2 C-0.67 1.34 -0.34 0.68 0 0 Z " fill="#409B92" transform="translate(887,201)"/>
<path d="M0 0 C0.66 0 1.32 0 2 0 C3.36421031 2.72842061 2.87807211 4.60953318 2.5625 7.625 C2.40974609 9.12933594 2.40974609 9.12933594 2.25390625 10.6640625 C2.17011719 11.43492187 2.08632813 12.20578125 2 13 C0 11 0 11 -0.1953125 8.3984375 C-0.17210937 7.40070313 -0.14890625 6.40296875 -0.125 5.375 C-0.10695313 4.37210938 -0.08890625 3.36921875 -0.0703125 2.3359375 C-0.04710937 1.56507813 -0.02390625 0.79421875 0 0 Z " fill="#3B3E43" transform="translate(392,165)"/>
<path d="M0 0 C0.66 0 1.32 0 2 0 C2.268125 0.7425 2.53625 1.485 2.8125 2.25 C3.94406435 4.87046481 5.28817158 6.7434989 7 9 C7 9.66 7 10.32 7 11 C3.17131081 9.54773858 1.7461047 7.66681987 0 4 C0 2.68 0 1.36 0 0 Z " fill="#38A096" transform="translate(792,141)"/>
<path d="M0 0 C2.97 0.495 2.97 0.495 6 1 C6 2.32 6 3.64 6 5 C6.66 5 7.32 5 8 5 C7.67 5.99 7.34 6.98 7 8 C6.34 8 5.68 8 5 8 C3.7109375 6.25 3.7109375 6.25 2.375 4 C1.92898438 3.2575 1.48296875 2.515 1.0234375 1.75 C0.68570313 1.1725 0.34796875 0.595 0 0 Z " fill="#51ADA2" transform="translate(844,124)"/>
<path d="M0 0 C0.99 0 1.98 0 3 0 C2.67 6.6 2.34 13.2 2 20 C1.67 20 1.34 20 1 20 C1 14.06 1 8.12 1 2 C0.34 1.67 -0.32 1.34 -1 1 C-0.67 0.67 -0.34 0.34 0 0 Z " fill="#359489" transform="translate(945,5)"/>
<path d="M0 0 C0.66 0.33 1.32 0.66 2 1 C1.360625 1.9075 0.72125 2.815 0.0625 3.75 C-1.61428953 6.39221381 -2.53689998 7.9898499 -3 11 C-3.99 10.67 -4.98 10.34 -6 10 C-3 2.42857143 -3 2.42857143 0 0 Z " fill="#34A192" transform="translate(801,168)"/>
<path d="M0 0 C2.475 0.99 2.475 0.99 5 2 C5 2.66 5 3.32 5 4 C5.66 4 6.32 4 7 4 C8.06775224 5.96466413 9.06553465 7.96855359 10 10 C9.67 10.66 9.34 11.32 9 12 C8.60167969 11.44570312 8.20335937 10.89140625 7.79296875 10.3203125 C7.26316406 9.59585938 6.73335938 8.87140625 6.1875 8.125 C5.66542969 7.40570313 5.14335937 6.68640625 4.60546875 5.9453125 C2.96727223 3.76971345 2.96727223 3.76971345 0 2 C0 1.34 0 0.68 0 0 Z " fill="#21252A" transform="translate(342,150)"/>
<path d="M0 0 C0.25 2.25 0.25 2.25 0 5 C-2 7.3125 -2 7.3125 -4 9 C-4.6875 6.1875 -4.6875 6.1875 -5 3 C-3.41464922 0.73521317 -2.79754986 0 0 0 Z " fill="#52ACA1" transform="translate(893,113)"/>
<path d="M0 0 C3.28788824 3.11016455 5.83735988 6.01618925 8 10 C4.9054129 9.6684371 3.97195314 8.97117406 1.75 6.6875 C0 4 0 4 0 0 Z " fill="#4FADA2" transform="translate(807,90)"/>
<path d="M0 0 C0.99 0 1.98 0 3 0 C4.640625 1.86328125 4.640625 1.86328125 6.25 4.3125 C7.06210937 5.51326172 7.06210937 5.51326172 7.890625 6.73828125 C9 9 9 9 8 12 C6.66382103 10.18959679 5.33112616 8.3766216 4 6.5625 C3.2575 5.55316406 2.515 4.54382813 1.75 3.50390625 C0 1 0 1 0 0 Z " fill="#56B0A6" transform="translate(739,72)"/>
<path d="M0 0 C0.66 0 1.32 0 2 0 C2.33 0.66 2.66 1.32 3 2 C3.99 2 4.98 2 6 2 C5.67 3.32 5.34 4.64 5 6 C4.38125 5.649375 3.7625 5.29875 3.125 4.9375 C2.073125 4.4734375 2.073125 4.4734375 1 4 C0.01 4.495 0.01 4.495 -1 5 C-1.99 4.01 -2.98 3.02 -4 2 C-2.68 2 -1.36 2 0 2 C0 1.34 0 0.68 0 0 Z " fill="#42AA9F" transform="translate(874,37)"/>
<path d="M0 0 C0.66 0 1.32 0 2 0 C2.33 1.98 2.66 3.96 3 6 C3.66 6 4.32 6 5 6 C5.33 7.98 5.66 9.96 6 12 C3.34930567 9.52601863 1.28384156 7.42357749 0 4 C0 2.68 0 1.36 0 0 Z " fill="#22262A" transform="translate(262,230)"/>
<path d="M0 0 C0.99 0 1.98 0 3 0 C3.433125 1.6396875 3.433125 1.6396875 3.875 3.3125 C4.81893204 7.04013845 4.81893204 7.04013845 7 10 C6.34 10.66 5.68 11.32 5 12 C2.525 8.04 2.525 8.04 0 4 C0.66 4 1.32 4 2 4 C1.34 2.68 0.68 1.36 0 0 Z " fill="#4BAB9F" transform="translate(767,107)"/>
<path d="M0 0 C1.65 0.33 3.3 0.66 5 1 C2.47211993 3.79872437 0.79588866 5.45773019 -3 6 C-3 5.34 -3 4.68 -3 4 C-2.34 4 -1.68 4 -1 4 C-0.67 2.68 -0.34 1.36 0 0 Z " fill="#42454A" transform="translate(704,247)"/>
<path d="M0 0 C0.33 0.99 0.66 1.98 1 3 C-1.64 5.64 -4.28 8.28 -7 11 C-7.99 10.67 -8.98 10.34 -10 10 C-9.52949219 9.61328125 -9.05898438 9.2265625 -8.57421875 8.828125 C-5.3182388 6.10469664 -2.34546467 3.58718126 0 0 Z " fill="#1B1F23" transform="translate(723,233)"/>
<path d="M0 0 C1.32 0.33 2.64 0.66 4 1 C2.6875 3.5 2.6875 3.5 1 6 C0.01 6 -0.98 6 -2 6 C-2 4.68 -2 3.36 -2 2 C-1.34 2 -0.68 2 0 2 C0 1.34 0 0.68 0 0 Z " fill="#3EA194" transform="translate(800,239)"/>
<path d="M0 0 C8.57142857 -0.28571429 8.57142857 -0.28571429 12 2 C11.67 2.66 11.34 3.32 11 4 C7.37 3.01 3.74 2.02 0 1 C0 0.67 0 0.34 0 0 Z " fill="#23262B" transform="translate(342,172)"/>
<path d="M0 0 C0.66 0.33 1.32 0.66 2 1 C1.34 3.31 0.68 5.62 0 8 C-1.32 8 -2.64 8 -4 8 C-4 6.68 -4 5.36 -4 4 C-2.68 4 -1.36 4 0 4 C0 2.68 0 1.36 0 0 Z " fill="#3FA096" transform="translate(830,197)"/>
<path d="M0 0 C0 3 0 3 -1.4609375 4.60546875 C-2.09257812 5.12753906 -2.72421875 5.64960938 -3.375 6.1875 C-4.00148438 6.71730469 -4.62796875 7.24710938 -5.2734375 7.79296875 C-7 9 -7 9 -9 9 C-9 7 -9 7 -7.5390625 5.52734375 C-6.59160156 4.74037109 -6.59160156 4.74037109 -5.625 3.9375 C-4.99851562 3.41027344 -4.37203125 2.88304687 -3.7265625 2.33984375 C-2 1 -2 1 0 0 Z " fill="#272B2D" transform="translate(310,196)"/>
<path d="M0 0 C0 0.66 0 1.32 0 2 C-1.44860687 3.25106957 -2.90276867 4.49699773 -4.3984375 5.69140625 C-6.40476588 7.33072334 -8.20414101 9.13506951 -10 11 C-9.42380903 7.43235179 -8.13030516 5.74840503 -5.5625 3.25 C-4.94503906 2.63640625 -4.32757812 2.0228125 -3.69140625 1.390625 C-2 0 -2 0 0 0 Z " fill="#101318" transform="translate(616,128)"/>
<path d="M0 0 C2.66735273 2.48952921 4.55746343 4.63408134 6 8 C5.34 8 4.68 8 4 8 C3.67 9.32 3.34 10.64 3 12 C1.82923301 8.01939223 0.74250597 4.08378283 0 0 Z " fill="#56B2A8" transform="translate(795,73)"/>
<path d="M0 0 C0.66 0 1.32 0 2 0 C2.66 2.64 3.32 5.28 4 8 C3.01 8.495 3.01 8.495 2 9 C0.4375 7.3125 0.4375 7.3125 -1 5 C-0.6875 2.25 -0.6875 2.25 0 0 Z " fill="#41A89C" transform="translate(793,72)"/>
<path d="M0 0 C1.98 0 3.96 0 6 0 C5.67 1.32 5.34 2.64 5 4 C3.35 3.67 1.7 3.34 0 3 C0 2.01 0 1.02 0 0 Z " fill="#2EA293" transform="translate(791,181)"/>
<path d="M0 0 C0 0.99 0 1.98 0 3 C-2.57213134 4.61949011 -3.67669159 5.04408751 -6.75 4.625 C-7.4925 4.41875 -8.235 4.2125 -9 4 C-6.01353231 2.00902154 -3.40312738 1.05875074 0 0 Z " fill="#4A4E51" transform="translate(296,171)"/>
<path d="M0 0 C-2.43338652 1.53508028 -3.67124507 2.03088304 -6.578125 1.7578125 C-7.90070313 1.44457031 -7.90070313 1.44457031 -9.25 1.125 C-10.14203125 0.92132813 -11.0340625 0.71765625 -11.953125 0.5078125 C-12.62859375 0.34023437 -13.3040625 0.17265625 -14 0 C-14 -0.33 -14 -0.66 -14 -1 C-8.65998179 -2.33500455 -5.16044765 -1.512545 0 0 Z " fill="#4E5154" transform="translate(508,147)"/>
<path d="M0 0 C0.99 0.33 1.98 0.66 3 1 C2.45773019 4.79588866 0.79872437 6.47211993 -2 9 C-1.67 7.68 -1.34 6.36 -1 5 C-1.66 4.67 -2.32 4.34 -3 4 C-2.01 2.68 -1.02 1.36 0 0 Z " fill="#56AFA4" transform="translate(849,101)"/>
<path d="M0 0 C0.66 0 1.32 0 2 0 C2 0.66 2 1.32 2 2 C2.804375 2.268125 3.60875 2.53625 4.4375 2.8125 C5.7059375 3.4003125 5.7059375 3.4003125 7 4 C7.33 4.99 7.66 5.98 8 7 C6.68 7.33 5.36 7.66 4 8 C3.67 6.35 3.34 4.7 3 3 C2.01 2.67 1.02 2.34 0 2 C0 1.34 0 0.68 0 0 Z " fill="#51B1A4" transform="translate(932,81)"/>
<path d="M0 0 C0.33 0 0.66 0 1 0 C0.67 5.61 0.34 11.22 0 17 C-0.33 17 -0.66 17 -1 17 C-1.22262606 14.91814549 -1.42757926 12.83439574 -1.625 10.75 C-1.74101563 9.58984375 -1.85703125 8.4296875 -1.9765625 7.234375 C-1.99955595 4.06127909 -1.69705154 2.61682756 0 0 Z " fill="#67B8AE" transform="translate(945,76)"/>
<path d="M0 0 C0 0.66 0 1.32 0 2 C-1.4609375 3.2890625 -1.4609375 3.2890625 -3.375 4.625 C-4.00148438 5.07101563 -4.62796875 5.51703125 -5.2734375 5.9765625 C-7 7 -7 7 -9 7 C-7.68534669 3.05604006 -4.38536841 0 0 0 Z " fill="#46484B" transform="translate(348,247)"/>
<path d="M0 0 C0 0.66 0 1.32 0 2 C0.66 2.33 1.32 2.66 2 3 C0.02 3.66 -1.96 4.32 -4 5 C-4.33 3.68 -4.66 2.36 -5 1 C-2 0 -2 0 0 0 Z " fill="#208B7E" transform="translate(860,229)"/>
<path d="M0 0 C0.66 0 1.32 0 2 0 C2.28571429 7.42857143 2.28571429 7.42857143 0 11 C-1.28571429 3.57142857 -1.28571429 3.57142857 0 0 Z " fill="#212629" transform="translate(299,208)"/>
<path d="M0 0 C2.125 0.375 2.125 0.375 4 1 C2.38405168 3.04119788 0.7143618 5.04072937 -1 7 C-1.66 7 -2.32 7 -3 7 C-2.25 2.25 -2.25 2.25 0 0 Z " fill="#262A2E" transform="translate(213,161)"/>
<path d="M0 0 C0.99 0.495 0.99 0.495 2 1 C2.4140625 3.06640625 2.4140625 3.06640625 2.625 5.5625 C2.69976562 6.38878906 2.77453125 7.21507812 2.8515625 8.06640625 C2.92503906 9.02353516 2.92503906 9.02353516 3 10 C2.34 10 1.68 10 1 10 C0.67 6.7 0.34 3.4 0 0 Z " fill="#212529" transform="translate(391,155)"/>
<path d="M0 0 C2.1875 0.3125 2.1875 0.3125 4 1 C4.33 2.32 4.66 3.64 5 5 C2.36 4.34 -0.28 3.68 -3 3 C-1.75 1.4375 -1.75 1.4375 0 0 Z " fill="#3C4144" transform="translate(337,146)"/>
<path d="M0 0 C2 3 2 3 1.75 5.125 C1 7 1 7 -1 8 C-1.66 7.67 -2.32 7.34 -3 7 C-1.125 2.25 -1.125 2.25 0 0 Z " fill="#43464A" transform="translate(389,145)"/>
<path d="M0 0 C2.64 0.33 5.28 0.66 8 1 C7.67 1.66 7.34 2.32 7 3 C6.34 3 5.68 3 5 3 C4.67 3.99 4.34 4.98 4 6 C2.68 4.02 1.36 2.04 0 0 Z " fill="#46A297" transform="translate(860,146)"/>
<path d="M0 0 C0.33 0.66 0.66 1.32 1 2 C-0.98 4.64 -2.96 7.28 -5 10 C-5.33 9.01 -5.66 8.02 -6 7 C-4.78515625 5.17578125 -4.78515625 5.17578125 -3.0625 3.3125 C-2.49660156 2.68988281 -1.93070313 2.06726563 -1.34765625 1.42578125 C-0.90292969 0.95527344 -0.45820313 0.48476562 0 0 Z " fill="#23262A" transform="translate(212,125)"/>
<path d="M0 0 C0.99 0 1.98 0 3 0 C3.33 0.99 3.66 1.98 4 3 C4.66 3.66 5.32 4.32 6 5 C5.67 5.66 5.34 6.32 5 7 C2.525 6.01 2.525 6.01 0 5 C0.33 4.01 0.66 3.02 1 2 C0.67 1.34 0.34 0.68 0 0 Z " fill="#272A2F" transform="translate(698,121)"/>
<path d="M0 0 C4.455 2.97 4.455 2.97 9 6 C8.01 6.33 7.02 6.66 6 7 C2.8125 5.25 2.8125 5.25 0 3 C0 2.01 0 1.02 0 0 Z " fill="#4C4F52" transform="translate(701,121)"/>
<path d="M0 0 C2.97 0.33 5.94 0.66 9 1 C7.68 1.33 6.36 1.66 5 2 C3.71563266 3.9837767 3.71563266 3.9837767 3 6 C2.01 4.02 1.02 2.04 0 0 Z " fill="#3F4247" transform="translate(650,225)"/>
<path d="M0 0 C-1 3 -1 3 -3.3125 4.75 C-6.32190521 6.14972335 -6.98041673 5.95287489 -10 5 C-8.71186658 4.16121545 -7.41936744 3.32913217 -6.125 2.5 C-5.40570312 2.0359375 -4.68640625 1.571875 -3.9453125 1.09375 C-2 0 -2 0 0 0 Z " fill="#494D4F" transform="translate(695,218)"/>
<path d="M0 0 C3.99881788 0.61520275 6.80358226 2.60268669 10 5 C10 5.66 10 6.32 10 7 C5.56541027 5.6062718 3.12621626 3.39417765 0 0 Z " fill="#21242B" transform="translate(639,218)"/>
<path d="M0 0 C2.02350324 3.03525486 2.32124018 4.19426202 2.625 7.6875 C2.69976562 8.49574219 2.77453125 9.30398437 2.8515625 10.13671875 C2.90054687 10.75160156 2.94953125 11.36648437 3 12 C0.13700494 9.13700494 0.00578775 7.34147716 -0.0625 3.3125 C-0.041875 2.219375 -0.02125 1.12625 0 0 Z " fill="#21272B" transform="translate(456,191)"/>
<path d="M0 0 C0.66 1.32 1.32 2.64 2 4 C0.35 5.65 -1.3 7.3 -3 9 C-3.99 8.67 -4.98 8.34 -6 8 C-4.02 5.36 -2.04 2.72 0 0 Z " fill="#4EA39A" transform="translate(852,189)"/>
<path d="M0 0 C1.32 0 2.64 0 4 0 C4.33 0.99 4.66 1.98 5 3 C2.625 4.0625 2.625 4.0625 0 5 C-0.66 4.67 -1.32 4.34 -2 4 C-2 3.34 -2 2.68 -2 2 C-1.34 2 -0.68 2 0 2 C0 1.34 0 0.68 0 0 Z " fill="#309B92" transform="translate(876,131)"/>
<path d="M0 0 C3 0 3 0 5.6875 2.5 C6.450625 3.325 7.21375 4.15 8 5 C7 7 7 7 5 8 C2.525 4.04 2.525 4.04 0 0 Z " fill="#3D9B92" transform="translate(866,248)"/>
<path d="M0 0 C0.66 0 1.32 0 2 0 C1.64950425 3.24208567 1.43778819 4.61527704 -1.0625 6.8125 C-1.701875 7.204375 -2.34125 7.59625 -3 8 C-2.25 2.25 -2.25 2.25 0 0 Z " fill="#2EA18F" transform="translate(763,220)"/>
<path d="M0 0 C0.33 0 0.66 0 1 0 C1.33 3.63 1.66 7.26 2 11 C1.01 11 0.02 11 -1 11 C-0.67 7.37 -0.34 3.74 0 0 Z " fill="#373A3E" transform="translate(732,170)"/>
<path d="M0 0 C1.98 0.495 1.98 0.495 4 1 C4.33 2.65 4.66 4.3 5 6 C4.67 5.34 4.34 4.68 4 4 C1.97536745 3.34786708 1.97536745 3.34786708 0 3 C0 2.01 0 1.02 0 0 Z " fill="#3DA396" transform="translate(851,131)"/>
<path d="M0 0 C5.75 1.875 5.75 1.875 8 3 C8 3.66 8 4.32 8 5 C4.62537285 4.45276317 2.91765 3.9451 0 2 C0 1.34 0 0.68 0 0 Z " fill="#54575A" transform="translate(362,118)"/>
<path d="M0 0 C0.66 0 1.32 0 2 0 C1.34 2.31 0.68 4.62 0 7 C-1.32 6.34 -2.64 5.68 -4 5 C-2.71937515 3.2925002 -1.38232443 1.62626404 0 0 Z " fill="#41A79B" transform="translate(856,92)"/>
<path d="M0 0 C2 2 2 2 2 6 C1.34 6 0.68 6 0 6 C0 6.66 0 7.32 0 8 C-0.66 7.67 -1.32 7.34 -2 7 C-1.125 2.25 -1.125 2.25 0 0 Z " fill="#4CAC9F" transform="translate(882,55)"/>
<path d="M0 0 C3.79588866 0.54226981 5.47211993 2.20127563 8 5 C7.67 5.66 7.34 6.32 7 7 C6.34 6.67 5.68 6.34 5 6 C5 5.34 5 4.68 5 4 C4.360625 3.71125 3.72125 3.4225 3.0625 3.125 C1 2 1 2 0 0 Z " fill="#23292D" transform="translate(705,216)"/>
<path d="M0 0 C1.32 0.33 2.64 0.66 4 1 C4 2.32 4 3.64 4 5 C2.68 5 1.36 5 0 5 C0 3.35 0 1.7 0 0 Z " fill="#2F8E87" transform="translate(890,208)"/>
<path d="M0 0 C0.99 0.33 1.98 0.66 3 1 C2.67 1.99 2.34 2.98 2 4 C1.34 4 0.68 4 0 4 C0 4.66 0 5.32 0 6 C-0.66 5.67 -1.32 5.34 -2 5 C-2 2 -2 2 0 0 Z " fill="#3BA597" transform="translate(774,205)"/>
<path d="M0 0 C0.66 0 1.32 0 2 0 C1.625 2.9375 1.625 2.9375 1 6 C0.01 6.495 0.01 6.495 -1 7 C-1.33 5.35 -1.66 3.7 -2 2 C-1.34 2 -0.68 2 0 2 C0 1.34 0 0.68 0 0 Z " fill="#3BA69A" transform="translate(836,189)"/>
<path d="M0 0 C4.16138263 -0.08159574 7.9472484 0.01751476 12 1 C9.82443801 2.32087692 8.56899513 3.07112439 6 2.75 C3.91235527 1.96713323 1.96470761 1.05252193 0 0 Z " fill="#4F5155" transform="translate(334,170)"/>
<path d="M0 0 C0.99 0.33 1.98 0.66 3 1 C2 4 2 4 -0.0625 5.1875 C-0.701875 5.455625 -1.34125 5.72375 -2 6 C-2.33 5.01 -2.66 4.02 -3 3 C-2.01 2.01 -1.02 1.02 0 0 Z " fill="#272C30" transform="translate(612,132)"/>
<path d="M0 0 C1.98 1.65 3.96 3.3 6 5 C5.67 5.66 5.34 6.32 5 7 C4.34 6.67 3.68 6.34 3 6 C3 5.34 3 4.68 3 4 C1.35 4 -0.3 4 -2 4 C-2 3.34 -2 2.68 -2 2 C-1.34 2 -0.68 2 0 2 C0 1.34 0 0.68 0 0 Z " fill="#3A3C40" transform="translate(519,123)"/>
<path d="M0 0 C0.66 0 1.32 0 2 0 C1.67 2.31 1.34 4.62 1 7 C0.01 6.34 -0.98 5.68 -2 5 C-1.125 1.125 -1.125 1.125 0 0 Z " fill="#3FA494" transform="translate(753,234)"/>
<path d="M0 0 C0 0.66 0 1.32 0 2 C-2.90600261 3.25664978 -4.79604584 4 -8 4 C-8 3.34 -8 2.68 -8 2 C-4.91190305 0.23537317 -3.76687864 0 0 0 Z " fill="#202328" transform="translate(289,175)"/>
<path d="M0 0 C1.74627478 2.61941217 2.38722388 4.03824877 3 7 C1.68 7.33 0.36 7.66 -1 8 C-0.67 5.36 -0.34 2.72 0 0 Z " fill="#434649" transform="translate(418,157)"/>
<path d="M0 0 C1.32 0 2.64 0 4 0 C3.67 1.32 3.34 2.64 3 4 C1.68 4.33 0.36 4.66 -1 5 C-1.33 4.01 -1.66 3.02 -2 2 C-1.34 1.34 -0.68 0.68 0 0 Z " fill="#44ACA1" transform="translate(858,138)"/>
<path d="M0 0 C2.64 0.33 5.28 0.66 8 1 C8.33 1.99 8.66 2.98 9 4 C5.65626525 3.44271087 2.96687001 2.64826111 0 1 C0 0.67 0 0.34 0 0 Z " fill="#1E2127" transform="translate(353,116)"/>
<path d="M0 0 C0 0.66 0 1.32 0 2 C-2.64 2.66 -5.28 3.32 -8 4 C-7.67 3.01 -7.34 2.02 -7 1 C-4.52260646 0.09162237 -2.66420516 0 0 0 Z " fill="#25292C" transform="translate(472,112)"/>
<path d="M0 0 C3.3 0 6.6 0 10 0 C9.01 0.33 8.02 0.66 7 1 C7 1.66 7 2.32 7 3 C4.03824877 2.38722388 2.61941217 1.74627478 0 0 Z " fill="#4B5053" transform="translate(240,111)"/>
<path d="M0 0 C0.66 0 1.32 0 2 0 C2 0.66 2 1.32 2 2 C3.32 2.66 4.64 3.32 6 4 C5.67 5.32 5.34 6.64 5 8 C4.16382818 6.8562364 3.33113541 5.70992861 2.5 4.5625 C2.0359375 3.92441406 1.571875 3.28632812 1.09375 2.62890625 C0 1 0 1 0 0 Z " fill="#46ABA0" transform="translate(760,97)"/>
<path d="M0 0 C2.475 0.495 2.475 0.495 5 1 C4.67 2.98 4.34 4.96 4 7 C2.10786631 4.61426621 0.97608217 2.92824652 0 0 Z " fill="#2EA393" transform="translate(884,49)"/>
</svg>
